<svg width="283" height="70" viewBox="0 0 283 70" fill="none" xmlns="http://www.w3.org/2000/svg">
<path d="M9.59923 33.7283V26.3842C9.59923 25.8559 9.51289 25.4039 9.3402 25.0281C9.16752 24.6421 8.89833 24.3424 8.53265 24.1291C8.17712 23.9158 7.71493 23.8091 7.14609 23.8091C6.65851 23.8091 6.23696 23.8955 5.88143 24.0682C5.5259 24.2307 5.25164 24.4694 5.05864 24.7843C4.86564 25.089 4.76914 25.4496 4.76914 25.8661H0.380922C0.380922 25.1652 0.543448 24.4999 0.868501 23.8701C1.19355 23.2403 1.6659 22.6867 2.28553 22.2093C2.90516 21.7217 3.64161 21.3408 4.49488 21.0665C5.3583 20.7922 6.3233 20.6551 7.38988 20.6551C8.66978 20.6551 9.80746 20.8684 10.8029 21.295C11.7984 21.7217 12.5806 22.3616 13.1494 23.2149C13.7284 24.0682 14.0179 25.1347 14.0179 26.4146V33.4693C14.0179 34.3734 14.0738 35.1149 14.1855 35.6939C14.2973 36.2627 14.4598 36.7605 14.6731 37.1871V37.4461H10.2392C10.0259 36.9992 9.86333 36.4405 9.7516 35.7701C9.65002 35.0895 9.59923 34.4089 9.59923 33.7283ZM10.1782 27.405L10.2087 29.8886H7.75557C7.17656 29.8886 6.67375 29.9547 6.24712 30.0867C5.82048 30.2188 5.47004 30.4067 5.19577 30.6505C4.92151 30.8841 4.71835 31.1584 4.5863 31.4733C4.4644 31.7882 4.40345 32.1335 4.40345 32.5094C4.40345 32.8852 4.4898 33.2255 4.66248 33.5302C4.83517 33.8248 5.08403 34.0585 5.40909 34.2311C5.73414 34.3937 6.11506 34.4749 6.55185 34.4749C7.21212 34.4749 7.78604 34.3429 8.27362 34.0788C8.7612 33.8147 9.13704 33.4896 9.40115 33.1036C9.67541 32.7176 9.81762 32.3519 9.82778 32.0066L10.9858 33.8655C10.8233 34.2819 10.5998 34.7136 10.3154 35.1606C10.0411 35.6075 9.69065 36.0291 9.26402 36.4253C8.83738 36.8113 8.32441 37.1312 7.72509 37.3852C7.12578 37.629 6.41472 37.7509 5.59193 37.7509C4.54567 37.7509 3.5959 37.5426 2.74264 37.1262C1.89953 36.6995 1.22911 36.1154 0.73137 35.3739C0.24379 34.6222 0 33.769 0 32.8141C0 31.9507 0.162527 31.1838 0.48758 30.5133C0.812633 29.8429 1.29005 29.2792 1.91985 28.8221C2.55979 28.3548 3.35719 28.0043 4.31203 27.7707C5.26688 27.5269 6.37409 27.405 7.63367 27.405H10.1782Z" fill="#1C1C21"/>
<path d="M84.0039 24.5557V37.4461H79.6157V20.9598H83.7449L84.0039 24.5557ZM88.9711 20.8532L88.8949 24.9214C88.6816 24.8909 88.4226 24.8655 88.1179 24.8452C87.8233 24.8148 87.5541 24.7995 87.3103 24.7995C86.6907 24.7995 86.1523 24.8808 85.6952 25.0433C85.2482 25.1957 84.8724 25.4242 84.5677 25.729C84.2731 26.0337 84.0496 26.4045 83.8972 26.8413C83.755 27.2781 83.6738 27.7758 83.6535 28.3345L82.7697 28.0602C82.7697 26.9936 82.8764 26.0134 83.0897 25.1195C83.303 24.2154 83.6128 23.4282 84.0191 22.7578C84.4356 22.0874 84.9435 21.5693 85.5428 21.2036C86.1421 20.8379 86.8278 20.6551 87.5998 20.6551C87.8436 20.6551 88.0925 20.6754 88.3464 20.716C88.6004 20.7465 88.8086 20.7922 88.9711 20.8532Z" fill="#1C1C21"/>
<path d="M99.4236 33.7283V26.3842C99.4236 25.8559 99.3373 25.4039 99.1646 25.0281C98.9919 24.6421 98.7227 24.3424 98.357 24.1291C98.0015 23.9158 97.5393 23.8091 96.9705 23.8091C96.4829 23.8091 96.0613 23.8955 95.7058 24.0682C95.3503 24.2307 95.076 24.4694 94.883 24.7843C94.69 25.089 94.5935 25.4496 94.5935 25.8661H90.2053C90.2053 25.1652 90.3678 24.4999 90.6929 23.8701C91.0179 23.2403 91.4903 22.6867 92.1099 22.2093C92.7295 21.7217 93.466 21.3408 94.3193 21.0665C95.1827 20.7922 96.1477 20.6551 97.2143 20.6551C98.4942 20.6551 99.6319 20.8684 100.627 21.295C101.623 21.7217 102.405 22.3616 102.974 23.2149C103.553 24.0682 103.842 25.1347 103.842 26.4146V33.4693C103.842 34.3734 103.898 35.1149 104.01 35.6939C104.122 36.2627 104.284 36.7605 104.497 37.1871V37.4461H100.064C99.8502 36.9992 99.6877 36.4405 99.576 35.7701C99.4744 35.0895 99.4236 34.4089 99.4236 33.7283ZM100.003 27.405L100.033 29.8886H97.5799C97.0009 29.8886 96.4981 29.9547 96.0715 30.0867C95.6449 30.2188 95.2944 30.4067 95.0202 30.6505C94.7459 30.8841 94.5427 31.1584 94.4107 31.4733C94.2888 31.7882 94.2278 32.1335 94.2278 32.5094C94.2278 32.8852 94.3142 33.2255 94.4869 33.5302C94.6596 33.8248 94.9084 34.0585 95.2335 34.2311C95.5585 34.3937 95.9394 34.4749 96.3762 34.4749C97.0365 34.4749 97.6104 34.3429 98.098 34.0788C98.5856 33.8147 98.9614 33.4896 99.2255 33.1036C99.4998 32.7176 99.642 32.3519 99.6522 32.0066L100.81 33.8655C100.648 34.2819 100.424 34.7136 100.14 35.1606C99.8655 35.6075 99.515 36.0291 99.0884 36.4253C98.6618 36.8113 98.1488 37.1312 97.5495 37.3852C96.9502 37.629 96.2391 37.7509 95.4163 37.7509C94.37 37.7509 93.4203 37.5426 92.567 37.1262C91.7239 36.6995 91.0535 36.1154 90.5558 35.3739C90.0682 34.6222 89.8244 33.769 89.8244 32.8141C89.8244 31.9507 89.9869 31.1838 90.312 30.5133C90.637 29.8429 91.1144 29.2792 91.7442 28.8221C92.3842 28.3548 93.1816 28.0043 94.1364 27.7707C95.0913 27.5269 96.1985 27.405 97.4581 27.405H100.003Z" fill="#1C1C21"/>
<path d="M247.179 20.9598V37.4461H242.775V20.9598H247.179ZM242.501 16.663C242.501 16.0231 242.724 15.4949 243.171 15.0784C243.618 14.6619 244.218 14.4537 244.969 14.4537C245.711 14.4537 246.305 14.6619 246.752 15.0784C247.209 15.4949 247.438 16.0231 247.438 16.663C247.438 17.303 247.209 17.8312 246.752 18.2477C246.305 18.6641 245.711 18.8724 244.969 18.8724C244.218 18.8724 243.618 18.6641 243.171 18.2477C242.724 17.8312 242.501 17.303 242.501 16.663Z" fill="#1C1C21"/>
<path d="M255.102 24.4795V37.4461H250.714V20.9598H254.827L255.102 24.4795ZM254.462 28.624H253.273C253.273 27.405 253.431 26.308 253.746 25.3328C254.061 24.3475 254.502 23.5095 255.071 22.8187C255.64 22.1178 256.316 21.5845 257.098 21.2189C257.89 20.843 258.774 20.6551 259.749 20.6551C260.521 20.6551 261.227 20.7668 261.867 20.9903C262.507 21.2138 263.055 21.5693 263.512 22.0569C263.98 22.5445 264.335 23.1895 264.579 23.992C264.833 24.7944 264.96 25.7747 264.96 26.9327V37.4461H260.541V26.9174C260.541 26.1861 260.44 25.6172 260.237 25.2109C260.033 24.8046 259.734 24.5202 259.338 24.3577C258.952 24.185 258.474 24.0986 257.905 24.0986C257.316 24.0986 256.803 24.2154 256.366 24.4491C255.94 24.6827 255.584 25.0078 255.3 25.4242C255.026 25.8306 254.817 26.308 254.675 26.8565C254.533 27.405 254.462 27.9942 254.462 28.624Z" fill="#1C1C21"/>
<path d="M278.734 20.9598H282.711V36.8976C282.711 38.401 282.376 39.6758 281.705 40.722C281.045 41.7785 280.121 42.5759 278.932 43.1142C277.744 43.6628 276.362 43.937 274.788 43.937C274.097 43.937 273.366 43.8456 272.594 43.6628C271.832 43.4799 271.1 43.1955 270.4 42.8095C269.709 42.4235 269.13 41.9359 268.663 41.3468L270.598 38.7565C271.106 39.3457 271.695 39.8028 272.365 40.1278C273.036 40.463 273.777 40.6306 274.59 40.6306C275.382 40.6306 276.052 40.4833 276.601 40.1888C277.149 39.9043 277.571 39.4828 277.866 38.9241C278.16 38.3756 278.307 37.7102 278.307 36.9281V24.769L278.734 20.9598ZM267.642 29.4011V29.0811C267.642 27.8215 267.794 26.6787 268.099 25.6528C268.414 24.6167 268.856 23.7279 269.424 22.9863C270.003 22.2448 270.704 21.6709 271.527 21.2646C272.35 20.8583 273.279 20.6551 274.315 20.6551C275.412 20.6551 276.332 20.8583 277.073 21.2646C277.815 21.6709 278.424 22.2499 278.902 23.0016C279.379 23.7431 279.75 24.6218 280.014 25.6376C280.288 26.6432 280.502 27.7453 280.654 28.944V29.6448C280.502 30.7927 280.273 31.8593 279.968 32.8446C279.664 33.8299 279.262 34.6933 278.765 35.4349C278.267 36.1662 277.647 36.7351 276.906 37.1414C276.174 37.5477 275.301 37.7509 274.285 37.7509C273.269 37.7509 272.35 37.5426 271.527 37.1262C270.714 36.7097 270.019 36.1256 269.44 35.3739C268.861 34.6222 268.414 33.7385 268.099 32.7227C267.794 31.7069 267.642 30.5997 267.642 29.4011ZM272.03 29.0811V29.4011C272.03 30.0816 272.096 30.7165 272.228 31.3057C272.36 31.8948 272.563 32.418 272.837 32.8751C273.122 33.322 273.472 33.6725 273.889 33.9264C274.315 34.1702 274.818 34.2921 275.397 34.2921C276.2 34.2921 276.855 34.1245 277.363 33.7893C277.871 33.4439 278.252 32.9716 278.506 32.3722C278.76 31.7729 278.907 31.0822 278.947 30.3V28.304C278.927 27.6641 278.841 27.0901 278.688 26.5822C278.536 26.0642 278.323 25.6223 278.048 25.2566C277.774 24.8909 277.419 24.6065 276.982 24.4034C276.545 24.2002 276.027 24.0986 275.428 24.0986C274.849 24.0986 274.346 24.2307 273.919 24.4948C273.503 24.7487 273.152 25.0992 272.868 25.5461C272.594 25.9931 272.385 26.5213 272.243 27.1308C272.101 27.7301 272.03 28.3802 272.03 29.0811Z" fill="#1C1C21"/>
<path d="M46.9966 18.8937V32.9604C46.444 33.6268 45.5908 34.35 44.4368 35.1301C43.2829 35.894 41.7958 36.5522 39.9755 37.1048C38.1552 37.6574 35.9529 37.9337 33.3688 37.9337C31.0771 37.9337 28.9887 37.5599 27.1034 36.8123C25.2181 36.0484 23.5928 34.9351 22.2276 33.4724C20.8786 32.0096 19.8384 30.2218 19.1071 28.109C18.3757 25.9799 18.01 23.5501 18.01 20.8197V18.6012C18.01 15.8707 18.3594 13.4409 19.0583 11.3118C19.7734 9.18275 20.7892 7.38683 22.1057 5.92409C23.4221 4.46135 24.9905 3.34805 26.8108 2.58417C28.6311 1.8203 30.6546 1.43836 32.8812 1.43836C35.9692 1.43836 38.5046 1.94219 40.4874 2.94986C42.4703 3.94127 43.9818 5.32275 45.0219 7.09429C46.0784 8.84957 46.7285 10.8649 46.9722 13.1403H39.878C39.6992 11.9376 39.3579 10.8893 38.854 9.99538C38.3502 9.10149 37.627 8.40262 36.6843 7.89879C35.7579 7.39496 34.5552 7.14304 33.0762 7.14304C31.8573 7.14304 30.7683 7.39496 29.8094 7.89879C28.8668 8.38637 28.0704 9.10961 27.4203 10.0685C26.7702 11.0274 26.2745 12.2139 25.9332 13.6279C25.5919 15.0418 25.4212 16.6834 25.4212 18.5524V20.8197C25.4212 22.6725 25.6 24.314 25.9576 25.7442C26.3151 27.1582 26.8433 28.3528 27.5422 29.3279C28.2573 30.2868 29.135 31.0101 30.1751 31.4977C31.2153 31.9852 32.4261 32.229 33.8076 32.229C34.9615 32.229 35.9204 32.1315 36.6843 31.9365C37.4644 31.7414 38.0902 31.5058 38.5615 31.2295C39.0491 30.9369 39.4229 30.6606 39.6829 30.4006V24.1108H33.0031V18.8937H46.9966Z" fill="#038A39"/>
<path d="M51.3361 24.5253V24.0133C51.3361 22.0792 51.6124 20.2996 52.165 18.6743C52.7176 17.0328 53.5221 15.6107 54.5785 14.408C55.6349 13.2053 56.9351 12.2708 58.4791 11.6044C60.0231 10.9218 61.7947 10.5805 63.7938 10.5805C65.7928 10.5805 67.5725 10.9218 69.1327 11.6044C70.693 12.2708 72.0013 13.2053 73.0578 14.408C74.1304 15.6107 74.9431 17.0328 75.4957 18.6743C76.0483 20.2996 76.3246 22.0792 76.3246 24.0133V24.5253C76.3246 26.4431 76.0483 28.2227 75.4957 29.8643C74.9431 31.4895 74.1304 32.9116 73.0578 34.1306C72.0013 35.3333 70.7011 36.2678 69.1571 36.9342C67.6131 37.6005 65.8416 37.9337 63.8425 37.9337C61.8434 37.9337 60.0638 37.6005 58.5035 36.9342C56.9595 36.2678 55.6512 35.3333 54.5785 34.1306C53.5221 32.9116 52.7176 31.4895 52.165 29.8643C51.6124 28.2227 51.3361 26.4431 51.3361 24.5253ZM58.3572 24.0133V24.5253C58.3572 25.6304 58.4548 26.6625 58.6498 27.6214C58.8448 28.5803 59.1536 29.4254 59.5762 30.1568C60.015 30.8719 60.5839 31.4326 61.2827 31.839C61.9816 32.2453 62.8348 32.4484 63.8425 32.4484C64.8177 32.4484 65.6547 32.2453 66.3535 31.839C67.0524 31.4326 67.6131 30.8719 68.0357 30.1568C68.4583 29.4254 68.7671 28.5803 68.9621 27.6214C69.1734 26.6625 69.279 25.6304 69.279 24.5253V24.0133C69.279 22.9406 69.1734 21.933 68.9621 20.9903C68.7671 20.0314 68.4501 19.1863 68.0113 18.4549C67.5887 17.7073 67.028 17.1222 66.3292 16.6996C65.6303 16.277 64.7852 16.0658 63.7938 16.0658C62.8023 16.0658 61.9572 16.277 61.2583 16.6996C60.5757 17.1222 60.015 17.7073 59.5762 18.4549C59.1536 19.1863 58.8448 20.0314 58.6498 20.9903C58.4548 21.933 58.3572 22.9406 58.3572 24.0133Z" fill="#038A39"/>
<path d="M137.034 25.6711H144.324C144.177 28.0602 143.519 30.1812 142.349 32.034C141.195 33.8868 139.578 35.3333 137.498 36.3734C135.433 37.4136 132.947 37.9337 130.038 37.9337C127.762 37.9337 125.722 37.5436 123.918 36.7635C122.114 35.9671 120.57 34.8294 119.286 33.3505C118.019 31.8715 117.052 30.0837 116.385 27.9871C115.719 25.8905 115.386 23.542 115.386 20.9415V18.4793C115.386 15.8788 115.727 13.5303 116.41 11.4337C117.109 9.3209 118.1 7.52498 119.384 6.04599C120.684 4.567 122.236 3.42931 124.04 2.63293C125.844 1.83655 127.86 1.43836 130.086 1.43836C133.044 1.43836 135.539 1.9747 137.571 3.04737C139.618 4.12005 141.203 5.59904 142.325 7.48435C143.462 9.36966 144.145 11.515 144.372 13.9204H137.059C136.977 12.4902 136.693 11.2793 136.205 10.2879C135.718 9.28027 134.978 8.52452 133.987 8.02069C133.012 7.5006 131.712 7.24056 130.086 7.24056C128.867 7.24056 127.803 7.4681 126.893 7.92317C125.983 8.37825 125.219 9.06898 124.601 9.99538C123.983 10.9218 123.52 12.092 123.211 13.506C122.919 14.9037 122.773 16.5452 122.773 18.4305V20.9415C122.773 22.7781 122.911 24.3952 123.187 25.793C123.463 27.1744 123.886 28.3446 124.455 29.3035C125.04 30.2462 125.787 30.9613 126.698 31.4489C127.624 31.9202 128.737 32.1559 130.038 32.1559C131.565 32.1559 132.825 31.9121 133.816 31.4245C134.808 30.9369 135.563 30.2137 136.084 29.2548C136.62 28.2959 136.937 27.1013 137.034 25.6711Z" fill="#038A39"/>
<path d="M156.099 0V37.4461H149.053V0H156.099Z" fill="#038A39"/>
<path d="M174.042 37.9337C171.994 37.9337 170.157 37.6087 168.532 36.9585C166.907 36.2922 165.525 35.3739 164.388 34.2037C163.266 33.0335 162.405 31.6764 161.803 30.1324C161.202 28.5722 160.901 26.9144 160.901 25.1591V24.184C160.901 22.1849 161.186 20.3565 161.755 18.6987C162.323 17.0409 163.136 15.6026 164.193 14.3836C165.265 13.1647 166.565 12.2301 168.093 11.58C169.621 10.9137 171.344 10.5805 173.262 10.5805C175.131 10.5805 176.788 10.8893 178.235 11.5069C179.681 12.1245 180.892 13.0021 181.867 14.1398C182.859 15.2775 183.606 16.6427 184.11 18.2355C184.614 19.812 184.866 21.5673 184.866 23.5013V26.4268H163.9V21.7461H177.967V21.2097C177.967 20.2346 177.788 19.365 177.43 18.6012C177.089 17.821 176.569 17.2034 175.87 16.7484C175.171 16.2933 174.277 16.0658 173.188 16.0658C172.262 16.0658 171.466 16.2689 170.799 16.6752C170.133 17.0815 169.588 17.6504 169.166 18.3818C168.76 19.1131 168.451 19.9745 168.239 20.9659C168.044 21.9411 167.947 23.0138 167.947 24.184V25.1591C167.947 26.2155 168.093 27.1907 168.386 28.0846C168.695 28.9785 169.125 29.7505 169.678 30.4006C170.247 31.0507 170.929 31.5545 171.726 31.9121C172.538 32.2697 173.457 32.4484 174.48 32.4484C175.748 32.4484 176.926 32.2046 178.015 31.7171C179.121 31.2132 180.071 30.4575 180.868 29.4498L184.281 33.1554C183.728 33.9518 182.972 34.7157 182.014 35.447C181.071 36.1784 179.933 36.7798 178.601 37.2511C177.268 37.7062 175.748 37.9337 174.042 37.9337Z" fill="#038A39"/>
<path d="M203.101 31.4977V19.747C203.101 18.9018 202.963 18.1786 202.687 17.5772C202.411 16.9596 201.98 16.4802 201.395 16.1389C200.826 15.7976 200.087 15.6269 199.176 15.6269C198.396 15.6269 197.722 15.7651 197.153 16.0414C196.584 16.3014 196.145 16.6834 195.836 17.1872C195.528 17.6748 195.373 18.2517 195.373 18.9181H188.352C188.352 17.7967 188.612 16.7321 189.132 15.7244C189.652 14.7168 190.408 13.831 191.399 13.0671C192.391 12.287 193.569 11.6775 194.934 11.2387C196.316 10.7999 197.86 10.5805 199.566 10.5805C201.614 10.5805 203.435 10.9218 205.027 11.6044C206.62 12.287 207.872 13.3109 208.782 14.6762C209.708 16.0414 210.171 17.7479 210.171 19.7957V31.0832C210.171 32.5297 210.261 33.7161 210.439 34.6425C210.618 35.5527 210.878 36.3491 211.22 37.0317V37.4461H204.125C203.784 36.731 203.524 35.8371 203.345 34.7644C203.183 33.6755 203.101 32.5866 203.101 31.4977ZM204.028 21.3804L204.077 25.3541H200.152C199.225 25.3541 198.421 25.4598 197.738 25.6711C197.055 25.8824 196.495 26.183 196.056 26.5731C195.617 26.9469 195.292 27.3857 195.081 27.8896C194.886 28.3934 194.788 28.946 194.788 29.5473C194.788 30.1487 194.926 30.6931 195.203 31.1807C195.479 31.6521 195.877 32.0259 196.397 32.3022C196.917 32.5622 197.527 32.6922 198.226 32.6922C199.282 32.6922 200.2 32.4809 200.98 32.0584C201.761 31.6358 202.362 31.1157 202.784 30.4981C203.223 29.8805 203.451 29.2954 203.467 28.7428L205.32 31.7171C205.06 32.3834 204.702 33.0742 204.247 33.7893C203.808 34.5044 203.248 35.1789 202.565 35.8127C201.882 36.4303 201.062 36.9423 200.103 37.3486C199.144 37.7387 198.006 37.9337 196.69 37.9337C195.016 37.9337 193.496 37.6005 192.131 36.9342C190.782 36.2516 189.709 35.317 188.913 34.1306C188.133 32.9279 187.743 31.5627 187.743 30.0349C187.743 28.6534 188.003 27.4264 188.523 26.3537C189.043 25.281 189.807 24.379 190.814 23.6476C191.838 22.9 193.114 22.3393 194.642 21.9655C196.17 21.5754 197.941 21.3804 199.956 21.3804H204.028Z" fill="#038A39"/>
<path d="M222.458 16.6996V37.4461H215.437V11.0681H222.019L222.458 16.6996ZM221.434 23.3307H219.533C219.533 21.3804 219.785 19.6251 220.289 18.0648C220.792 16.4883 221.499 15.1475 222.41 14.0423C223.32 12.9209 224.4 12.0676 225.652 11.4825C226.92 10.8812 228.334 10.5805 229.894 10.5805C231.129 10.5805 232.259 10.7593 233.283 11.1168C234.306 11.4744 235.184 12.0432 235.916 12.8233C236.663 13.6035 237.232 14.6355 237.622 15.9195C238.028 17.2034 238.232 18.7718 238.232 20.6246V37.4461H231.162V20.6002C231.162 19.4301 230.999 18.5199 230.674 17.8698C230.349 17.2197 229.87 16.7646 229.236 16.5046C228.618 16.2283 227.854 16.0901 226.944 16.0901C226.001 16.0901 225.181 16.277 224.482 16.6508C223.799 17.0247 223.23 17.5447 222.775 18.2111C222.336 18.8612 222.003 19.6251 221.776 20.5027C221.548 21.3804 221.434 22.323 221.434 23.3307Z" fill="#038A39"/>
<path opacity="0.7" d="M54.874 62.7041C54.874 62.4404 54.833 62.2061 54.751 62.001C54.6748 61.7959 54.5371 61.6084 54.3379 61.4385C54.1387 61.2686 53.8574 61.1045 53.4941 60.9463C53.1367 60.7822 52.6797 60.6152 52.123 60.4453C51.5137 60.2578 50.9512 60.0498 50.4355 59.8213C49.9258 59.5869 49.4805 59.3174 49.0996 59.0127C48.7188 58.7021 48.4229 58.3477 48.2119 57.9492C48.001 57.5449 47.8955 57.0791 47.8955 56.5518C47.8955 56.0303 48.0039 55.5557 48.2207 55.1279C48.4434 54.7002 48.7568 54.3311 49.1611 54.0205C49.5713 53.7041 50.0547 53.4609 50.6113 53.291C51.168 53.1152 51.7832 53.0273 52.457 53.0273C53.4062 53.0273 54.2236 53.2031 54.9092 53.5547C55.6006 53.9062 56.1309 54.3779 56.5 54.9697C56.875 55.5615 57.0625 56.2148 57.0625 56.9297H54.874C54.874 56.5078 54.7832 56.1357 54.6016 55.8135C54.4258 55.4854 54.1562 55.2275 53.793 55.04C53.4355 54.8525 52.9814 54.7588 52.4307 54.7588C51.9092 54.7588 51.4756 54.8379 51.1299 54.9961C50.7842 55.1543 50.5264 55.3682 50.3564 55.6377C50.1865 55.9072 50.1016 56.2119 50.1016 56.5518C50.1016 56.792 50.1572 57.0117 50.2686 57.2109C50.3799 57.4043 50.5498 57.5859 50.7783 57.7559C51.0068 57.9199 51.2939 58.0752 51.6396 58.2217C51.9854 58.3682 52.3926 58.5088 52.8613 58.6436C53.5703 58.8545 54.1885 59.0889 54.7158 59.3467C55.2432 59.5986 55.6826 59.8857 56.0342 60.208C56.3857 60.5303 56.6494 60.8965 56.8252 61.3066C57.001 61.7109 57.0889 62.1709 57.0889 62.6865C57.0889 63.2256 56.9805 63.7119 56.7637 64.1455C56.5469 64.5732 56.2363 64.9395 55.832 65.2441C55.4336 65.543 54.9531 65.7744 54.3906 65.9385C53.834 66.0967 53.2129 66.1758 52.5273 66.1758C51.9121 66.1758 51.3057 66.0938 50.708 65.9297C50.1162 65.7656 49.5771 65.5166 49.0908 65.1826C48.6045 64.8428 48.2178 64.4209 47.9307 63.917C47.6436 63.4072 47.5 62.8125 47.5 62.1328H49.7061C49.7061 62.5488 49.7764 62.9033 49.917 63.1963C50.0635 63.4893 50.2656 63.7295 50.5234 63.917C50.7812 64.0986 51.0801 64.2334 51.4199 64.3213C51.7656 64.4092 52.1348 64.4531 52.5273 64.4531C53.043 64.4531 53.4736 64.3799 53.8193 64.2334C54.1709 64.0869 54.4346 63.8818 54.6104 63.6182C54.7861 63.3545 54.874 63.0498 54.874 62.7041ZM61.0967 52.5V66H58.9697V52.5H61.0967ZM63.0127 61.3506V61.1484C63.0127 60.4629 63.1123 59.8271 63.3115 59.2412C63.5107 58.6494 63.7979 58.1367 64.1729 57.7031C64.5537 57.2637 65.0166 56.9238 65.5615 56.6836C66.1123 56.4375 66.7334 56.3145 67.4248 56.3145C68.1221 56.3145 68.7432 56.4375 69.2881 56.6836C69.8389 56.9238 70.3047 57.2637 70.6855 57.7031C71.0664 58.1367 71.3564 58.6494 71.5557 59.2412C71.7549 59.8271 71.8545 60.4629 71.8545 61.1484V61.3506C71.8545 62.0361 71.7549 62.6719 71.5557 63.2578C71.3564 63.8438 71.0664 64.3564 70.6855 64.7959C70.3047 65.2295 69.8418 65.5693 69.2969 65.8154C68.752 66.0557 68.1338 66.1758 67.4424 66.1758C66.7451 66.1758 66.1211 66.0557 65.5703 65.8154C65.0254 65.5693 64.5625 65.2295 64.1816 64.7959C63.8008 64.3564 63.5107 63.8438 63.3115 63.2578C63.1123 62.6719 63.0127 62.0361 63.0127 61.3506ZM65.1309 61.1484V61.3506C65.1309 61.7783 65.1748 62.1826 65.2627 62.5635C65.3506 62.9443 65.4883 63.2783 65.6758 63.5654C65.8633 63.8525 66.1035 64.0781 66.3965 64.2422C66.6895 64.4062 67.0381 64.4883 67.4424 64.4883C67.835 64.4883 68.1748 64.4062 68.4619 64.2422C68.7549 64.0781 68.9951 63.8525 69.1826 63.5654C69.3701 63.2783 69.5078 62.9443 69.5957 62.5635C69.6895 62.1826 69.7363 61.7783 69.7363 61.3506V61.1484C69.7363 60.7266 69.6895 60.3281 69.5957 59.9531C69.5078 59.5723 69.3672 59.2354 69.1738 58.9424C68.9863 58.6494 68.7461 58.4209 68.4531 58.2568C68.166 58.0869 67.8232 58.002 67.4248 58.002C67.0264 58.002 66.6807 58.0869 66.3877 58.2568C66.1006 58.4209 65.8633 58.6494 65.6758 58.9424C65.4883 59.2354 65.3506 59.5723 65.2627 59.9531C65.1748 60.3281 65.1309 60.7266 65.1309 61.1484ZM79.7207 56.4902H81.6455V65.7363C81.6455 66.5918 81.4639 67.3184 81.1006 67.916C80.7373 68.5137 80.2305 68.9678 79.5801 69.2783C78.9297 69.5947 78.1768 69.7529 77.3213 69.7529C76.958 69.7529 76.5537 69.7002 76.1084 69.5947C75.6689 69.4893 75.2412 69.3193 74.8252 69.085C74.415 68.8564 74.0723 68.5547 73.7969 68.1797L74.79 66.9316C75.1299 67.3359 75.5049 67.6318 75.915 67.8193C76.3252 68.0068 76.7559 68.1006 77.207 68.1006C77.6934 68.1006 78.1064 68.0098 78.4463 67.8281C78.792 67.6523 79.0586 67.3916 79.2461 67.0459C79.4336 66.7002 79.5273 66.2783 79.5273 65.7803V58.6436L79.7207 56.4902ZM73.2607 61.3506V61.166C73.2607 60.4453 73.3486 59.7891 73.5244 59.1973C73.7002 58.5996 73.9521 58.0869 74.2803 57.6592C74.6084 57.2256 75.0068 56.8945 75.4756 56.666C75.9443 56.4316 76.4746 56.3145 77.0664 56.3145C77.6816 56.3145 78.2061 56.4258 78.6396 56.6484C79.0791 56.8711 79.4453 57.1904 79.7383 57.6064C80.0312 58.0166 80.2598 58.5088 80.4238 59.083C80.5938 59.6514 80.7197 60.2842 80.8018 60.9814V61.5703C80.7256 62.25 80.5967 62.8711 80.415 63.4336C80.2334 63.9961 79.9932 64.4824 79.6943 64.8926C79.3955 65.3027 79.0264 65.6191 78.5869 65.8418C78.1533 66.0645 77.6406 66.1758 77.0488 66.1758C76.4688 66.1758 75.9443 66.0557 75.4756 65.8154C75.0127 65.5752 74.6143 65.2383 74.2803 64.8047C73.9521 64.3711 73.7002 63.8613 73.5244 63.2754C73.3486 62.6836 73.2607 62.042 73.2607 61.3506ZM75.3789 61.166V61.3506C75.3789 61.7842 75.4199 62.1885 75.502 62.5635C75.5898 62.9385 75.7217 63.2695 75.8975 63.5566C76.0791 63.8379 76.3076 64.0605 76.583 64.2246C76.8643 64.3828 77.1953 64.4619 77.5762 64.4619C78.0742 64.4619 78.4814 64.3564 78.7979 64.1455C79.1201 63.9346 79.3662 63.6504 79.5361 63.293C79.7119 62.9297 79.835 62.5254 79.9053 62.0801V60.4893C79.8701 60.1436 79.7969 59.8213 79.6855 59.5225C79.5801 59.2236 79.4365 58.9629 79.2549 58.7402C79.0732 58.5117 78.8447 58.3359 78.5693 58.2129C78.2939 58.084 77.9688 58.0195 77.5938 58.0195C77.2129 58.0195 76.8818 58.1016 76.6006 58.2656C76.3193 58.4297 76.0879 58.6553 75.9062 58.9424C75.7305 59.2295 75.5986 59.5635 75.5107 59.9443C75.4229 60.3252 75.3789 60.7324 75.3789 61.166ZM89.2041 64.0928V59.5576C89.2041 59.2178 89.1426 58.9248 89.0195 58.6787C88.8965 58.4326 88.709 58.2422 88.457 58.1074C88.2109 57.9727 87.9004 57.9053 87.5254 57.9053C87.1797 57.9053 86.8809 57.9639 86.6289 58.0811C86.377 58.1982 86.1807 58.3564 86.04 58.5557C85.8994 58.7549 85.8291 58.9805 85.8291 59.2324H83.7197C83.7197 58.8574 83.8105 58.4941 83.9922 58.1426C84.1738 57.791 84.4375 57.4775 84.7832 57.2021C85.1289 56.9268 85.542 56.71 86.0225 56.5518C86.5029 56.3936 87.042 56.3145 87.6396 56.3145C88.3545 56.3145 88.9873 56.4346 89.5381 56.6748C90.0947 56.915 90.5312 57.2783 90.8477 57.7646C91.1699 58.2451 91.3311 58.8486 91.3311 59.5752V63.8027C91.3311 64.2363 91.3604 64.626 91.4189 64.9717C91.4834 65.3115 91.5742 65.6074 91.6914 65.8594V66H89.5205C89.4209 65.7715 89.3418 65.4814 89.2832 65.1299C89.2305 64.7725 89.2041 64.4268 89.2041 64.0928ZM89.5117 60.2168L89.5293 61.5264H88.0088C87.6162 61.5264 87.2705 61.5645 86.9717 61.6406C86.6729 61.7109 86.4238 61.8164 86.2246 61.957C86.0254 62.0977 85.876 62.2676 85.7764 62.4668C85.6768 62.666 85.627 62.8916 85.627 63.1436C85.627 63.3955 85.6855 63.627 85.8027 63.8379C85.9199 64.043 86.0898 64.2041 86.3125 64.3213C86.541 64.4385 86.8164 64.4971 87.1387 64.4971C87.5723 64.4971 87.9502 64.4092 88.2725 64.2334C88.6006 64.0518 88.8584 63.832 89.0459 63.5742C89.2334 63.3105 89.333 63.0615 89.3447 62.8271L90.0303 63.7676C89.96 64.0078 89.8398 64.2656 89.6699 64.541C89.5 64.8164 89.2773 65.0801 89.002 65.332C88.7324 65.5781 88.4072 65.7803 88.0264 65.9385C87.6514 66.0967 87.2178 66.1758 86.7256 66.1758C86.1045 66.1758 85.5508 66.0527 85.0645 65.8066C84.5781 65.5547 84.1973 65.2178 83.9219 64.7959C83.6465 64.3682 83.5088 63.8848 83.5088 63.3457C83.5088 62.8418 83.6025 62.3965 83.79 62.0098C83.9834 61.6172 84.2646 61.2891 84.6338 61.0254C85.0088 60.7617 85.4658 60.5625 86.0049 60.4277C86.5439 60.2871 87.1592 60.2168 87.8506 60.2168H89.5117ZM95.6465 58.5205V66H93.5283V56.4902H95.5234L95.6465 58.5205ZM95.2686 60.8936L94.583 60.8848C94.5889 60.2109 94.6826 59.5928 94.8643 59.0303C95.0518 58.4678 95.3096 57.9844 95.6377 57.5801C95.9717 57.1758 96.3701 56.8652 96.833 56.6484C97.2959 56.4258 97.8115 56.3145 98.3799 56.3145C98.8369 56.3145 99.25 56.3789 99.6191 56.5078C99.9941 56.6309 100.313 56.833 100.577 57.1143C100.847 57.3955 101.052 57.7617 101.192 58.2129C101.333 58.6582 101.403 59.2061 101.403 59.8564V66H99.2764V59.8477C99.2764 59.3906 99.209 59.0303 99.0742 58.7666C98.9453 58.4971 98.7549 58.3066 98.5029 58.1953C98.2568 58.0781 97.9492 58.0195 97.5801 58.0195C97.2168 58.0195 96.8916 58.0957 96.6045 58.248C96.3174 58.4004 96.0742 58.6084 95.875 58.8721C95.6816 59.1357 95.5322 59.4404 95.4268 59.7861C95.3213 60.1318 95.2686 60.501 95.2686 60.8936ZM110.913 66H108.795V55.5762C108.795 54.8672 108.927 54.2725 109.19 53.792C109.46 53.3057 109.844 52.9395 110.342 52.6934C110.84 52.4414 111.429 52.3154 112.108 52.3154C112.319 52.3154 112.527 52.3301 112.732 52.3594C112.938 52.3828 113.137 52.4209 113.33 52.4736L113.277 54.1084C113.16 54.0791 113.031 54.0586 112.891 54.0469C112.756 54.0352 112.609 54.0293 112.451 54.0293C112.129 54.0293 111.851 54.0908 111.616 54.2139C111.388 54.3311 111.212 54.5039 111.089 54.7324C110.972 54.9609 110.913 55.2422 110.913 55.5762V66ZM112.873 56.4902V58.0371H107.336V56.4902H112.873ZM114.007 61.3506V61.1484C114.007 60.4629 114.106 59.8271 114.306 59.2412C114.505 58.6494 114.792 58.1367 115.167 57.7031C115.548 57.2637 116.011 56.9238 116.556 56.6836C117.106 56.4375 117.728 56.3145 118.419 56.3145C119.116 56.3145 119.737 56.4375 120.282 56.6836C120.833 56.9238 121.299 57.2637 121.68 57.7031C122.061 58.1367 122.351 58.6494 122.55 59.2412C122.749 59.8271 122.849 60.4629 122.849 61.1484V61.3506C122.849 62.0361 122.749 62.6719 122.55 63.2578C122.351 63.8438 122.061 64.3564 121.68 64.7959C121.299 65.2295 120.836 65.5693 120.291 65.8154C119.746 66.0557 119.128 66.1758 118.437 66.1758C117.739 66.1758 117.115 66.0557 116.564 65.8154C116.02 65.5693 115.557 65.2295 115.176 64.7959C114.795 64.3564 114.505 63.8438 114.306 63.2578C114.106 62.6719 114.007 62.0361 114.007 61.3506ZM116.125 61.1484V61.3506C116.125 61.7783 116.169 62.1826 116.257 62.5635C116.345 62.9443 116.482 63.2783 116.67 63.5654C116.857 63.8525 117.098 64.0781 117.391 64.2422C117.684 64.4062 118.032 64.4883 118.437 64.4883C118.829 64.4883 119.169 64.4062 119.456 64.2422C119.749 64.0781 119.989 63.8525 120.177 63.5654C120.364 63.2783 120.502 62.9443 120.59 62.5635C120.684 62.1826 120.73 61.7783 120.73 61.3506V61.1484C120.73 60.7266 120.684 60.3281 120.59 59.9531C120.502 59.5723 120.361 59.2354 120.168 58.9424C119.98 58.6494 119.74 58.4209 119.447 58.2568C119.16 58.0869 118.817 58.002 118.419 58.002C118.021 58.002 117.675 58.0869 117.382 58.2568C117.095 58.4209 116.857 58.6494 116.67 58.9424C116.482 59.2354 116.345 59.5723 116.257 59.9531C116.169 60.3281 116.125 60.7266 116.125 61.1484ZM126.751 58.3008V66H124.633V56.4902H126.654L126.751 58.3008ZM129.66 56.4287L129.643 58.3975C129.514 58.374 129.373 58.3564 129.221 58.3447C129.074 58.333 128.928 58.3271 128.781 58.3271C128.418 58.3271 128.099 58.3799 127.823 58.4854C127.548 58.585 127.316 58.7314 127.129 58.9248C126.947 59.1123 126.807 59.3408 126.707 59.6104C126.607 59.8799 126.549 60.1816 126.531 60.5156L126.048 60.5508C126.048 59.9531 126.106 59.3994 126.224 58.8896C126.341 58.3799 126.517 57.9316 126.751 57.5449C126.991 57.1582 127.29 56.8564 127.647 56.6396C128.011 56.4229 128.43 56.3145 128.904 56.3145C129.033 56.3145 129.171 56.3262 129.317 56.3496C129.47 56.373 129.584 56.3994 129.66 56.4287ZM140.664 54.9082L136.841 66H134.529L139.346 53.2031H140.822L140.664 54.9082ZM143.863 66L140.031 54.9082L139.864 53.2031H141.35L146.184 66H143.863ZM143.679 61.2539V63.0029H136.718V61.2539H143.679ZM153.496 56.4902H155.421V65.7363C155.421 66.5918 155.239 67.3184 154.876 67.916C154.513 68.5137 154.006 68.9678 153.355 69.2783C152.705 69.5947 151.952 69.7529 151.097 69.7529C150.733 69.7529 150.329 69.7002 149.884 69.5947C149.444 69.4893 149.017 69.3193 148.601 69.085C148.19 68.8564 147.848 68.5547 147.572 68.1797L148.565 66.9316C148.905 67.3359 149.28 67.6318 149.69 67.8193C150.101 68.0068 150.531 68.1006 150.982 68.1006C151.469 68.1006 151.882 68.0098 152.222 67.8281C152.567 67.6523 152.834 67.3916 153.021 67.0459C153.209 66.7002 153.303 66.2783 153.303 65.7803V58.6436L153.496 56.4902ZM147.036 61.3506V61.166C147.036 60.4453 147.124 59.7891 147.3 59.1973C147.476 58.5996 147.728 58.0869 148.056 57.6592C148.384 57.2256 148.782 56.8945 149.251 56.666C149.72 56.4316 150.25 56.3145 150.842 56.3145C151.457 56.3145 151.981 56.4258 152.415 56.6484C152.854 56.8711 153.221 57.1904 153.514 57.6064C153.807 58.0166 154.035 58.5088 154.199 59.083C154.369 59.6514 154.495 60.2842 154.577 60.9814V61.5703C154.501 62.25 154.372 62.8711 154.19 63.4336C154.009 63.9961 153.769 64.4824 153.47 64.8926C153.171 65.3027 152.802 65.6191 152.362 65.8418C151.929 66.0645 151.416 66.1758 150.824 66.1758C150.244 66.1758 149.72 66.0557 149.251 65.8154C148.788 65.5752 148.39 65.2383 148.056 64.8047C147.728 64.3711 147.476 63.8613 147.3 63.2754C147.124 62.6836 147.036 62.042 147.036 61.3506ZM149.154 61.166V61.3506C149.154 61.7842 149.195 62.1885 149.277 62.5635C149.365 62.9385 149.497 63.2695 149.673 63.5566C149.854 63.8379 150.083 64.0605 150.358 64.2246C150.64 64.3828 150.971 64.4619 151.352 64.4619C151.85 64.4619 152.257 64.3564 152.573 64.1455C152.896 63.9346 153.142 63.6504 153.312 63.293C153.487 62.9297 153.61 62.5254 153.681 62.0801V60.4893C153.646 60.1436 153.572 59.8213 153.461 59.5225C153.355 59.2236 153.212 58.9629 153.03 58.7402C152.849 58.5117 152.62 58.3359 152.345 58.2129C152.069 58.084 151.744 58.0195 151.369 58.0195C150.988 58.0195 150.657 58.1016 150.376 58.2656C150.095 58.4297 149.863 58.6553 149.682 58.9424C149.506 59.2295 149.374 59.5635 149.286 59.9443C149.198 60.3252 149.154 60.7324 149.154 61.166ZM157.214 61.3506V61.1484C157.214 60.4629 157.313 59.8271 157.513 59.2412C157.712 58.6494 157.999 58.1367 158.374 57.7031C158.755 57.2637 159.218 56.9238 159.763 56.6836C160.313 56.4375 160.935 56.3145 161.626 56.3145C162.323 56.3145 162.944 56.4375 163.489 56.6836C164.04 56.9238 164.506 57.2637 164.887 57.7031C165.268 58.1367 165.558 58.6494 165.757 59.2412C165.956 59.8271 166.056 60.4629 166.056 61.1484V61.3506C166.056 62.0361 165.956 62.6719 165.757 63.2578C165.558 63.8438 165.268 64.3564 164.887 64.7959C164.506 65.2295 164.043 65.5693 163.498 65.8154C162.953 66.0557 162.335 66.1758 161.644 66.1758C160.946 66.1758 160.322 66.0557 159.771 65.8154C159.227 65.5693 158.764 65.2295 158.383 64.7959C158.002 64.3564 157.712 63.8438 157.513 63.2578C157.313 62.6719 157.214 62.0361 157.214 61.3506ZM159.332 61.1484V61.3506C159.332 61.7783 159.376 62.1826 159.464 62.5635C159.552 62.9443 159.689 63.2783 159.877 63.5654C160.064 63.8525 160.305 64.0781 160.598 64.2422C160.891 64.4062 161.239 64.4883 161.644 64.4883C162.036 64.4883 162.376 64.4062 162.663 64.2422C162.956 64.0781 163.196 63.8525 163.384 63.5654C163.571 63.2783 163.709 62.9443 163.797 62.5635C163.891 62.1826 163.938 61.7783 163.938 61.3506V61.1484C163.938 60.7266 163.891 60.3281 163.797 59.9531C163.709 59.5723 163.568 59.2354 163.375 58.9424C163.188 58.6494 162.947 58.4209 162.654 58.2568C162.367 58.0869 162.024 58.002 161.626 58.002C161.228 58.002 160.882 58.0869 160.589 58.2568C160.302 58.4209 160.064 58.6494 159.877 58.9424C159.689 59.2354 159.552 59.5723 159.464 59.9531C159.376 60.3281 159.332 60.7266 159.332 61.1484ZM169.958 58.3008V66H167.84V56.4902H169.861L169.958 58.3008ZM172.867 56.4287L172.85 58.3975C172.721 58.374 172.58 58.3564 172.428 58.3447C172.281 58.333 172.135 58.3271 171.988 58.3271C171.625 58.3271 171.306 58.3799 171.03 58.4854C170.755 58.585 170.523 58.7314 170.336 58.9248C170.154 59.1123 170.014 59.3408 169.914 59.6104C169.814 59.8799 169.756 60.1816 169.738 60.5156L169.255 60.5508C169.255 59.9531 169.313 59.3994 169.431 58.8896C169.548 58.3799 169.724 57.9316 169.958 57.5449C170.198 57.1582 170.497 56.8564 170.854 56.6396C171.218 56.4229 171.637 56.3145 172.111 56.3145C172.24 56.3145 172.378 56.3262 172.524 56.3496C172.677 56.373 172.791 56.3994 172.867 56.4287ZM179.239 64.0928V59.5576C179.239 59.2178 179.178 58.9248 179.055 58.6787C178.932 58.4326 178.744 58.2422 178.492 58.1074C178.246 57.9727 177.936 57.9053 177.561 57.9053C177.215 57.9053 176.916 57.9639 176.664 58.0811C176.412 58.1982 176.216 58.3564 176.075 58.5557C175.935 58.7549 175.864 58.9805 175.864 59.2324H173.755C173.755 58.8574 173.846 58.4941 174.027 58.1426C174.209 57.791 174.473 57.4775 174.818 57.2021C175.164 56.9268 175.577 56.71 176.058 56.5518C176.538 56.3936 177.077 56.3145 177.675 56.3145C178.39 56.3145 179.022 56.4346 179.573 56.6748C180.13 56.915 180.566 57.2783 180.883 57.7646C181.205 58.2451 181.366 58.8486 181.366 59.5752V63.8027C181.366 64.2363 181.396 64.626 181.454 64.9717C181.519 65.3115 181.609 65.6074 181.727 65.8594V66H179.556C179.456 65.7715 179.377 65.4814 179.318 65.1299C179.266 64.7725 179.239 64.4268 179.239 64.0928ZM179.547 60.2168L179.564 61.5264H178.044C177.651 61.5264 177.306 61.5645 177.007 61.6406C176.708 61.7109 176.459 61.8164 176.26 61.957C176.061 62.0977 175.911 62.2676 175.812 62.4668C175.712 62.666 175.662 62.8916 175.662 63.1436C175.662 63.3955 175.721 63.627 175.838 63.8379C175.955 64.043 176.125 64.2041 176.348 64.3213C176.576 64.4385 176.852 64.4971 177.174 64.4971C177.607 64.4971 177.985 64.4092 178.308 64.2334C178.636 64.0518 178.894 63.832 179.081 63.5742C179.269 63.3105 179.368 63.0615 179.38 62.8271L180.065 63.7676C179.995 64.0078 179.875 64.2656 179.705 64.541C179.535 64.8164 179.312 65.0801 179.037 65.332C178.768 65.5781 178.442 65.7803 178.062 65.9385C177.687 66.0967 177.253 66.1758 176.761 66.1758C176.14 66.1758 175.586 66.0527 175.1 65.8066C174.613 65.5547 174.232 65.2178 173.957 64.7959C173.682 64.3682 173.544 63.8848 173.544 63.3457C173.544 62.8418 173.638 62.3965 173.825 62.0098C174.019 61.6172 174.3 61.2891 174.669 61.0254C175.044 60.7617 175.501 60.5625 176.04 60.4277C176.579 60.2871 177.194 60.2168 177.886 60.2168H179.547ZM191.948 64.4883C192.294 64.4883 192.604 64.4209 192.88 64.2861C193.161 64.1455 193.387 63.9521 193.557 63.7061C193.732 63.46 193.829 63.1758 193.847 62.8535H195.842C195.83 63.4688 195.648 64.0283 195.297 64.5322C194.945 65.0361 194.479 65.4375 193.899 65.7363C193.319 66.0293 192.678 66.1758 191.975 66.1758C191.248 66.1758 190.615 66.0527 190.076 65.8066C189.537 65.5547 189.089 65.209 188.731 64.7695C188.374 64.3301 188.104 63.8232 187.923 63.249C187.747 62.6748 187.659 62.0596 187.659 61.4033V61.0957C187.659 60.4395 187.747 59.8242 187.923 59.25C188.104 58.6699 188.374 58.1602 188.731 57.7207C189.089 57.2812 189.537 56.9385 190.076 56.6924C190.615 56.4404 191.245 56.3145 191.966 56.3145C192.728 56.3145 193.396 56.4668 193.97 56.7715C194.544 57.0703 194.995 57.4893 195.323 58.0283C195.657 58.5615 195.83 59.1826 195.842 59.8916H193.847C193.829 59.54 193.741 59.2236 193.583 58.9424C193.431 58.6553 193.214 58.4268 192.933 58.2568C192.657 58.0869 192.326 58.002 191.939 58.002C191.512 58.002 191.157 58.0898 190.876 58.2656C190.595 58.4355 190.375 58.6699 190.217 58.9688C190.059 59.2617 189.944 59.5928 189.874 59.9619C189.81 60.3252 189.777 60.7031 189.777 61.0957V61.4033C189.777 61.7959 189.81 62.1768 189.874 62.5459C189.938 62.915 190.05 63.2461 190.208 63.5391C190.372 63.8262 190.595 64.0576 190.876 64.2334C191.157 64.4033 191.515 64.4883 191.948 64.4883ZM199.735 52.5V66H197.608V52.5H199.735ZM206.248 66.1758C205.545 66.1758 204.909 66.0615 204.341 65.833C203.778 65.5986 203.298 65.2734 202.899 64.8574C202.507 64.4414 202.205 63.9521 201.994 63.3896C201.783 62.8271 201.678 62.2207 201.678 61.5703V61.2188C201.678 60.4746 201.786 59.8008 202.003 59.1973C202.22 58.5938 202.521 58.0781 202.908 57.6504C203.295 57.2168 203.752 56.8857 204.279 56.6572C204.807 56.4287 205.378 56.3145 205.993 56.3145C206.673 56.3145 207.268 56.4287 207.777 56.6572C208.287 56.8857 208.709 57.208 209.043 57.624C209.383 58.0342 209.635 58.5234 209.799 59.0918C209.969 59.6602 210.054 60.2871 210.054 60.9727V61.8779H202.706V60.3574H207.962V60.1904C207.95 59.8096 207.874 59.4521 207.733 59.1182C207.599 58.7842 207.391 58.5146 207.109 58.3096C206.828 58.1045 206.453 58.002 205.984 58.002C205.633 58.002 205.319 58.0781 205.044 58.2305C204.774 58.377 204.549 58.5908 204.367 58.8721C204.186 59.1533 204.045 59.4932 203.945 59.8916C203.852 60.2842 203.805 60.7266 203.805 61.2188V61.5703C203.805 61.9863 203.86 62.373 203.972 62.7305C204.089 63.082 204.259 63.3896 204.481 63.6533C204.704 63.917 204.974 64.125 205.29 64.2773C205.606 64.4238 205.967 64.4971 206.371 64.4971C206.881 64.4971 207.335 64.3945 207.733 64.1895C208.132 63.9844 208.478 63.6943 208.771 63.3193L209.887 64.4004C209.682 64.6992 209.415 64.9863 209.087 65.2617C208.759 65.5312 208.357 65.751 207.883 65.9209C207.414 66.0908 206.869 66.1758 206.248 66.1758ZM217.067 64.0928V59.5576C217.067 59.2178 217.006 58.9248 216.883 58.6787C216.76 58.4326 216.572 58.2422 216.32 58.1074C216.074 57.9727 215.764 57.9053 215.389 57.9053C215.043 57.9053 214.744 57.9639 214.492 58.0811C214.24 58.1982 214.044 58.3564 213.903 58.5557C213.763 58.7549 213.692 58.9805 213.692 59.2324H211.583C211.583 58.8574 211.674 58.4941 211.855 58.1426C212.037 57.791 212.301 57.4775 212.646 57.2021C212.992 56.9268 213.405 56.71 213.886 56.5518C214.366 56.3936 214.905 56.3145 215.503 56.3145C216.218 56.3145 216.851 56.4346 217.401 56.6748C217.958 56.915 218.395 57.2783 218.711 57.7646C219.033 58.2451 219.194 58.8486 219.194 59.5752V63.8027C219.194 64.2363 219.224 64.626 219.282 64.9717C219.347 65.3115 219.438 65.6074 219.555 65.8594V66H217.384C217.284 65.7715 217.205 65.4814 217.146 65.1299C217.094 64.7725 217.067 64.4268 217.067 64.0928ZM217.375 60.2168L217.393 61.5264H215.872C215.479 61.5264 215.134 61.5645 214.835 61.6406C214.536 61.7109 214.287 61.8164 214.088 61.957C213.889 62.0977 213.739 62.2676 213.64 62.4668C213.54 62.666 213.49 62.8916 213.49 63.1436C213.49 63.3955 213.549 63.627 213.666 63.8379C213.783 64.043 213.953 64.2041 214.176 64.3213C214.404 64.4385 214.68 64.4971 215.002 64.4971C215.436 64.4971 215.813 64.4092 216.136 64.2334C216.464 64.0518 216.722 63.832 216.909 63.5742C217.097 63.3105 217.196 63.0615 217.208 62.8271L217.894 63.7676C217.823 64.0078 217.703 64.2656 217.533 64.541C217.363 64.8164 217.141 65.0801 216.865 65.332C216.596 65.5781 216.271 65.7803 215.89 65.9385C215.515 66.0967 215.081 66.1758 214.589 66.1758C213.968 66.1758 213.414 66.0527 212.928 65.8066C212.441 65.5547 212.061 65.2178 211.785 64.7959C211.51 64.3682 211.372 63.8848 211.372 63.3457C211.372 62.8418 211.466 62.3965 211.653 62.0098C211.847 61.6172 212.128 61.2891 212.497 61.0254C212.872 60.7617 213.329 60.5625 213.868 60.4277C214.407 60.2871 215.022 60.2168 215.714 60.2168H217.375ZM223.51 58.5205V66H221.392V56.4902H223.387L223.51 58.5205ZM223.132 60.8936L222.446 60.8848C222.452 60.2109 222.546 59.5928 222.728 59.0303C222.915 58.4678 223.173 57.9844 223.501 57.5801C223.835 57.1758 224.233 56.8652 224.696 56.6484C225.159 56.4258 225.675 56.3145 226.243 56.3145C226.7 56.3145 227.113 56.3789 227.482 56.5078C227.857 56.6309 228.177 56.833 228.44 57.1143C228.71 57.3955 228.915 57.7617 229.056 58.2129C229.196 58.6582 229.267 59.2061 229.267 59.8564V66H227.14V59.8477C227.14 59.3906 227.072 59.0303 226.938 58.7666C226.809 58.4971 226.618 58.3066 226.366 58.1953C226.12 58.0781 225.812 58.0195 225.443 58.0195C225.08 58.0195 224.755 58.0957 224.468 58.248C224.181 58.4004 223.938 58.6084 223.738 58.8721C223.545 59.1357 223.396 59.4404 223.29 59.7861C223.185 60.1318 223.132 60.501 223.132 60.8936ZM233.696 56.4902V66H231.569V56.4902H233.696ZM231.429 53.9941C231.429 53.6719 231.534 53.4053 231.745 53.1943C231.962 52.9775 232.261 52.8691 232.642 52.8691C233.017 52.8691 233.312 52.9775 233.529 53.1943C233.746 53.4053 233.854 53.6719 233.854 53.9941C233.854 54.3105 233.746 54.5742 233.529 54.7852C233.312 54.9961 233.017 55.1016 232.642 55.1016C232.261 55.1016 231.962 54.9961 231.745 54.7852C231.534 54.5742 231.429 54.3105 231.429 53.9941ZM238.117 58.5205V66H235.999V56.4902H237.994L238.117 58.5205ZM237.739 60.8936L237.054 60.8848C237.06 60.2109 237.153 59.5928 237.335 59.0303C237.522 58.4678 237.78 57.9844 238.108 57.5801C238.442 57.1758 238.841 56.8652 239.304 56.6484C239.767 56.4258 240.282 56.3145 240.851 56.3145C241.308 56.3145 241.721 56.3789 242.09 56.5078C242.465 56.6309 242.784 56.833 243.048 57.1143C243.317 57.3955 243.522 57.7617 243.663 58.2129C243.804 58.6582 243.874 59.2061 243.874 59.8564V66H241.747V59.8477C241.747 59.3906 241.68 59.0303 241.545 58.7666C241.416 58.4971 241.226 58.3066 240.974 58.1953C240.728 58.0781 240.42 58.0195 240.051 58.0195C239.688 58.0195 239.362 58.0957 239.075 58.248C238.788 58.4004 238.545 58.6084 238.346 58.8721C238.152 59.1357 238.003 59.4404 237.897 59.7861C237.792 60.1318 237.739 60.501 237.739 60.8936ZM252.127 56.4902H254.052V65.7363C254.052 66.5918 253.87 67.3184 253.507 67.916C253.144 68.5137 252.637 68.9678 251.986 69.2783C251.336 69.5947 250.583 69.7529 249.728 69.7529C249.364 69.7529 248.96 69.7002 248.515 69.5947C248.075 69.4893 247.647 69.3193 247.231 69.085C246.821 68.8564 246.479 68.5547 246.203 68.1797L247.196 66.9316C247.536 67.3359 247.911 67.6318 248.321 67.8193C248.731 68.0068 249.162 68.1006 249.613 68.1006C250.1 68.1006 250.513 68.0098 250.853 67.8281C251.198 67.6523 251.465 67.3916 251.652 67.0459C251.84 66.7002 251.934 66.2783 251.934 65.7803V58.6436L252.127 56.4902ZM245.667 61.3506V61.166C245.667 60.4453 245.755 59.7891 245.931 59.1973C246.106 58.5996 246.358 58.0869 246.687 57.6592C247.015 57.2256 247.413 56.8945 247.882 56.666C248.351 56.4316 248.881 56.3145 249.473 56.3145C250.088 56.3145 250.612 56.4258 251.046 56.6484C251.485 56.8711 251.852 57.1904 252.145 57.6064C252.438 58.0166 252.666 58.5088 252.83 59.083C253 59.6514 253.126 60.2842 253.208 60.9814V61.5703C253.132 62.25 253.003 62.8711 252.821 63.4336C252.64 63.9961 252.399 64.4824 252.101 64.8926C251.802 65.3027 251.433 65.6191 250.993 65.8418C250.56 66.0645 250.047 66.1758 249.455 66.1758C248.875 66.1758 248.351 66.0557 247.882 65.8154C247.419 65.5752 247.021 65.2383 246.687 64.8047C246.358 64.3711 246.106 63.8613 245.931 63.2754C245.755 62.6836 245.667 62.042 245.667 61.3506ZM247.785 61.166V61.3506C247.785 61.7842 247.826 62.1885 247.908 62.5635C247.996 62.9385 248.128 63.2695 248.304 63.5566C248.485 63.8379 248.714 64.0605 248.989 64.2246C249.271 64.3828 249.602 64.4619 249.982 64.4619C250.48 64.4619 250.888 64.3564 251.204 64.1455C251.526 63.9346 251.772 63.6504 251.942 63.293C252.118 62.9297 252.241 62.5254 252.312 62.0801V60.4893C252.276 60.1436 252.203 59.8213 252.092 59.5225C251.986 59.2236 251.843 58.9629 251.661 58.7402C251.479 58.5117 251.251 58.3359 250.976 58.2129C250.7 58.084 250.375 58.0195 250 58.0195C249.619 58.0195 249.288 58.1016 249.007 58.2656C248.726 58.4297 248.494 58.6553 248.312 58.9424C248.137 59.2295 248.005 59.5635 247.917 59.9443C247.829 60.3252 247.785 60.7324 247.785 61.166Z" fill="#1C1C21"/>
</svg>
