<svg width="24" height="24" viewBox="0 0 24 24" fill="none" xmlns="http://www.w3.org/2000/svg">
<path d="M13.0998 19.5C12.803 19.5001 12.5129 19.4122 12.2661 19.2474C12.0193 19.0826 11.8269 18.8483 11.7133 18.5741C11.5998 18.2999 11.57 17.9982 11.628 17.7072C11.6859 17.4161 11.8289 17.1488 12.0388 16.939L16.6248 12.354C16.6714 12.3076 16.7083 12.2524 16.7335 12.1916C16.7587 12.1309 16.7717 12.0658 16.7717 12C16.7717 11.9342 16.7587 11.8691 16.7335 11.8084C16.7083 11.7476 16.6714 11.6925 16.6248 11.646L12.0428 7.061C11.7614 6.77974 11.6033 6.39822 11.6032 6.00036C11.6031 5.6025 11.761 5.2209 12.0423 4.9395C12.3236 4.65811 12.7051 4.49997 13.1029 4.49988C13.5008 4.49978 13.8824 4.65774 14.1638 4.939L18.7498 9.525C19.405 10.182 19.773 11.0721 19.773 12C19.773 12.9279 19.405 13.818 18.7498 14.475L14.1638 19.061C14.0241 19.2006 13.8582 19.3113 13.6756 19.3866C13.493 19.462 13.2973 19.5005 13.0998 19.5Z" fill="white"/>
<path d="M6.0998 19.5C5.80303 19.5001 5.51289 19.4122 5.26609 19.2474C5.01929 19.0826 4.82693 18.8483 4.71334 18.5741C4.59975 18.2999 4.57005 17.9982 4.62798 17.7072C4.68592 17.4161 4.82889 17.1488 5.0388 16.939L9.9818 12L5.0428 7.061C4.76141 6.77974 4.60327 6.39822 4.60317 6.00036C4.60308 5.6025 4.76104 5.2209 5.0423 4.9395C5.32356 4.65811 5.70509 4.49997 6.10295 4.49988C6.50081 4.49978 6.88241 4.65774 7.1638 4.939L13.1638 10.939C13.3032 11.0783 13.4138 11.2437 13.4892 11.4258C13.5647 11.6078 13.6035 11.8029 13.6035 12C13.6035 12.1971 13.5647 12.3922 13.4892 12.5743C13.4138 12.7563 13.3032 12.9217 13.1638 13.061L7.1638 19.061C7.02409 19.2006 6.85818 19.3113 6.67558 19.3866C6.49299 19.462 6.29732 19.5005 6.0998 19.5Z" fill="white"/>
</svg>
