<svg width="45" height="28" viewBox="0 0 45 28" fill="none" xmlns="http://www.w3.org/2000/svg">
<path d="M43.6712 22.5232V22.0751H43.8527V21.9824H43.3931V22.0751H43.5708V22.5232H43.6712Z" fill="white"/>
<path d="M44.5635 22.5232V21.9824H44.4244L44.2622 22.3532L44.0999 21.9824H43.957V22.5232H44.0575V22.1138L44.2081 22.4653H44.3124L44.463 22.1138V22.5232H44.5635Z" fill="white"/>
<path d="M21.2678 25.2077C21.376 25.3004 21.4918 25.3931 21.6039 25.4858C19.3983 26.9536 16.7524 27.8112 13.9056 27.8112C6.22661 27.8112 0 21.5845 0 13.9056C0 6.22661 6.22661 0 13.9056 0C16.7524 0 19.3983 0.857511 21.6039 2.32532C21.4918 2.41803 21.376 2.50687 21.2678 2.60343C17.9923 5.45408 16.1112 9.57167 16.1112 13.9056C16.1112 18.2395 17.9923 22.3571 21.2678 25.2077Z" fill="white"/>
<path d="M31.0943 0C28.2475 0 25.6016 0.857511 23.396 2.32532C23.508 2.41803 23.6239 2.50687 23.732 2.60343C27.0076 5.45408 28.8848 9.57167 28.8848 13.9056C28.8848 18.2395 27.0076 22.3571 23.732 25.2077C23.6239 25.3004 23.508 25.3931 23.396 25.4858C25.6016 26.9536 28.2475 27.8112 31.0943 27.8112C38.7732 27.8112 44.9999 21.5845 44.9999 13.9056C44.9999 6.22661 38.7732 0 31.0943 0Z" fill="white"/>
<path d="M22.5001 2.97809C22.3224 3.12101 22.1448 3.26393 21.9748 3.41457C19.043 5.96393 17.189 9.71843 17.189 13.9056C17.189 18.0927 19.043 21.8472 21.9748 24.3965C22.1448 24.5472 22.3224 24.6901 22.5001 24.833C22.6778 24.6901 22.8555 24.5472 23.0254 24.3965C25.9572 21.8472 27.8113 18.0927 27.8113 13.9056C27.8113 9.71843 25.9572 5.96393 23.0254 3.41457C22.8555 3.26393 22.6778 3.12101 22.5001 2.97809Z" fill="white"/>
</svg>
