<svg width="32" height="32" viewBox="0 0 32 32" fill="none" xmlns="http://www.w3.org/2000/svg">
<path d="M26.2336 3.67757C24.5443 2.27177 22.5821 1.23111 20.4706 0.621164C18.3592 0.0112137 16.1444 -0.154806 13.9656 0.133565C9.93501 0.657189 6.25478 2.69513 3.67216 5.83358C1.08954 8.97202 -0.201865 12.9757 0.0601629 17.0317C0.322191 21.0877 2.11801 24.892 5.08298 27.672C8.04795 30.4521 11.9598 31.9996 16.0243 32.0002H25.3336C27.1011 31.9981 28.7955 31.2951 30.0453 30.0453C31.2951 28.7955 31.9981 27.101 32.0003 25.3336V15.0789V14.9949C31.8591 12.8155 31.275 10.6878 30.2834 8.74185C29.2919 6.79593 27.9139 5.07271 26.2336 3.67757ZM10.6669 9.33356H16.0003C16.3539 9.33356 16.693 9.47404 16.9431 9.72409C17.1931 9.97414 17.3336 10.3133 17.3336 10.6669C17.3336 11.0205 17.1931 11.3597 16.9431 11.6097C16.693 11.8598 16.3539 12.0002 16.0003 12.0002H10.6669C10.3133 12.0002 9.97417 11.8598 9.72412 11.6097C9.47407 11.3597 9.3336 11.0205 9.3336 10.6669C9.3336 10.3133 9.47407 9.97414 9.72412 9.72409C9.97417 9.47404 10.3133 9.33356 10.6669 9.33356ZM21.3336 22.6669H10.6669C10.3133 22.6669 9.97417 22.5264 9.72412 22.2764C9.47407 22.0263 9.3336 21.6872 9.3336 21.3336C9.3336 20.9799 9.47407 20.6408 9.72412 20.3908C9.97417 20.1407 10.3133 20.0002 10.6669 20.0002H21.3336C21.6872 20.0002 22.0264 20.1407 22.2764 20.3908C22.5265 20.6408 22.6669 20.9799 22.6669 21.3336C22.6669 21.6872 22.5265 22.0263 22.2764 22.2764C22.0264 22.5264 21.6872 22.6669 21.3336 22.6669ZM21.3336 17.3336H10.6669C10.3133 17.3336 9.97417 17.1931 9.72412 16.943C9.47407 16.693 9.3336 16.3539 9.3336 16.0002C9.3336 15.6466 9.47407 15.3075 9.72412 15.0574C9.97417 14.8074 10.3133 14.6669 10.6669 14.6669H21.3336C21.6872 14.6669 22.0264 14.8074 22.2764 15.0574C22.5265 15.3075 22.6669 15.6466 22.6669 16.0002C22.6669 16.3539 22.5265 16.693 22.2764 16.943C22.0264 17.1931 21.6872 17.3336 21.3336 17.3336Z" fill="#B3B3B3"/>
</svg>
