<svg width="72" height="72" viewBox="0 0 72 72" fill="none" xmlns="http://www.w3.org/2000/svg">
<path d="M5.11763 50.2249C9.29419 49.5512 13.3036 48.0856 16.9301 45.9072L19.2139 44.5358C19.1841 44.356 19.1657 44.1746 19.1588 43.9924L17.7773 44.6832C14.8584 46.1281 11.5227 46.4944 8.35988 45.7171L5.59125 45.0241C5.46211 44.9973 5.32871 44.9991 5.2003 45.0291C5.0719 45.0592 4.95159 45.1168 4.84773 45.1981C4.74387 45.2793 4.65897 45.3823 4.59891 45.4997C4.53886 45.6171 4.50511 45.7462 4.5 45.8779C4.50007 46.7162 4.58297 47.5524 4.7475 48.3743L5.11763 50.2249Z" fill="#20843C"/>
<path d="M21.8545 48.1949L20.392 46.7268C20.3357 46.6705 20.2952 46.6041 20.2424 46.5445L18.0902 47.836C13.8321 50.3995 9.08287 52.0396 4.15031 52.6499C4.00981 52.6675 3.87558 52.7186 3.75889 52.7988C3.6422 52.8789 3.54644 52.986 3.47966 53.1109C3.41288 53.2357 3.37702 53.3748 3.37508 53.5164C3.37316 53.658 3.40521 53.7979 3.46856 53.9245L4.72518 56.4411C4.91612 56.8105 5.23474 57.0978 5.62174 57.2498C6.00875 57.4017 6.43776 57.4077 6.82893 57.2669C12.3345 55.2068 17.4113 52.1455 21.8027 48.2376L21.8545 48.1949Z" fill="#20843C"/>
<path d="M26.8646 50.0226C27.253 50.3947 27.772 50.5999 28.31 50.5942C28.848 50.5884 29.3624 50.3721 29.7429 49.9916C30.1233 49.6111 30.3396 49.0968 30.3454 48.5588C30.3512 48.0207 30.146 47.5019 29.7738 47.1133L24.8868 42.2263C24.4982 41.854 23.9794 41.6488 23.4413 41.6547C22.9033 41.6604 22.3889 41.8768 22.0084 42.2572C21.628 42.6377 21.4117 43.1521 21.4058 43.69C21.4001 44.2281 21.6053 44.747 21.9776 45.1356L26.8646 50.0226Z" fill="#20843C"/>
<path d="M15.3539 43.247C12.9894 42.9796 10.7389 42.0864 8.83456 40.6595C8.72524 40.5867 8.59987 40.5417 8.46927 40.5283C8.33866 40.5148 8.20675 40.5334 8.08493 40.5823C7.9631 40.6313 7.85501 40.7092 7.77002 40.8093C7.68502 40.9094 7.62566 41.0286 7.59706 41.1568L7.26856 43.1289L8.90544 43.5384C11.0389 44.0568 13.2759 43.9558 15.3539 43.247Z" fill="#20843C"/>
<path d="M9.15807 58.7576C9.00352 59.106 8.95939 59.4935 9.03159 59.8678C9.1038 60.2421 9.28887 60.5853 9.56194 60.8512L11.1482 62.4375C11.4235 62.6976 11.7678 62.8729 12.1401 62.9425C12.5124 63.0121 12.8968 62.9731 13.2474 62.8301C14.5071 59.769 16.0688 56.8412 17.9094 54.09C15.1552 55.9338 12.2235 57.4974 9.15807 58.7576Z" fill="#20843C"/>
<path d="M28.7505 56.6399C28.0285 58.719 27.9293 60.9637 28.4648 63.0985L28.8743 64.7343L30.8475 64.4058C31.0301 64.3754 31.1959 64.281 31.3155 64.1397C31.435 63.9983 31.5003 63.8191 31.5 63.634C31.4988 63.4645 31.4435 63.2998 31.3425 63.1638C29.9141 61.2582 29.0194 59.0062 28.7505 56.6399Z" fill="#20843C"/>
<path d="M25.4554 51.7624C25.3958 51.7095 25.3294 51.669 25.2731 51.6127L23.8106 50.1502L23.7679 50.1975C19.8594 54.587 16.7977 59.6623 14.7375 65.1667C14.6642 65.3559 14.626 65.5568 14.625 65.7596C14.624 66.0736 14.711 66.3815 14.876 66.6485C15.041 66.9156 15.2775 67.131 15.5588 67.2705L18.0788 68.5305C18.206 68.5885 18.3448 68.6166 18.4845 68.6122C18.6243 68.6078 18.7611 68.5713 18.8844 68.5054C19.0077 68.4396 19.1142 68.3462 19.1955 68.2325C19.2769 68.1189 19.3309 67.9879 19.3534 67.8499C19.9632 62.9191 21.6021 58.1715 24.1639 53.9145L25.4554 51.7624Z" fill="#20843C"/>
<path d="M26.0927 55.0729C23.9147 58.6997 22.4492 62.709 21.7749 66.8854L23.6256 67.2522C24.4472 67.4166 25.2829 67.4995 26.1208 67.4997C26.3538 67.4994 26.5772 67.4067 26.7422 67.242C26.9071 67.0774 26.9999 66.8541 27.0006 66.621C27.0005 66.5487 26.9918 66.4766 26.9747 66.4062L26.2828 63.6443C25.493 60.482 25.8596 57.1414 27.3167 54.2258L28.0074 52.8443C27.8253 52.8374 27.6438 52.819 27.4641 52.7892L26.0927 55.0729Z" fill="#20843C"/>
<path d="M67.5001 26.9994C67.4971 24.7599 66.6601 22.6018 65.1524 20.9458C63.6447 19.2898 61.5744 18.2547 59.345 18.0422C59.1971 17.7774 58.9974 17.5449 58.758 17.3586C58.5186 17.1723 58.2442 17.036 57.9511 16.9577L68.0232 6.88555C68.3954 6.49699 68.6006 5.97811 68.5949 5.44008C68.589 4.90205 68.3728 4.38767 67.9923 4.00721C67.6118 3.62675 67.0975 3.41044 66.5594 3.40466C66.0214 3.39889 65.5024 3.60409 65.114 3.97629L52.2159 16.8744H48.3751C47.9736 16.8754 47.5797 16.9843 47.2347 17.1898C46.8898 17.3953 46.6064 17.6896 46.4142 18.0422C44.1831 18.2526 42.1107 19.2868 40.601 20.943C39.0915 22.5992 38.2534 24.7585 38.2501 26.9994V30.8402L27.4659 41.6244L30.3751 44.5337L37.7844 37.1244H68.6251V34.8744H67.5001V26.9994ZM40.5001 26.9994C40.5024 25.3466 41.1104 23.7519 42.2092 22.5172C43.308 21.2824 44.8212 20.4932 46.4626 20.2989C46.7651 20.7866 47.2417 21.1413 47.7957 21.2912L40.5001 28.5891V26.9994ZM40.5001 34.8744V34.4087L53.5344 21.3744H57.3751C57.7593 21.3741 58.137 21.275 58.4719 21.0867C58.8068 20.8982 59.0877 20.627 59.2876 20.2989C60.929 20.4932 62.4422 21.2824 63.541 22.5172C64.6397 23.7519 65.2478 25.3466 65.2501 26.9994V34.8744H40.5001Z" fill="#20843C"/>
<path d="M40.3809 66.3355C40.3999 66.9507 40.6583 67.5342 41.101 67.9617C41.5437 68.3893 42.1357 68.6273 42.7512 68.6249H63.0012C63.6171 68.6278 64.2097 68.3901 64.653 67.9625C65.0961 67.5349 65.3549 66.9511 65.3739 66.3355L66.3357 39.3749H39.4167L40.3809 66.3355Z" fill="#20843C"/>
</svg>
