<svg width="74" height="54" viewBox="0 0 74 54" fill="none" xmlns="http://www.w3.org/2000/svg">
<path d="M54.3 0.637527H6.025C4.62599 0.637527 3.28426 1.19328 2.29501 2.18253C1.30576 3.17178 0.75 4.51353 0.75 5.91253V38.0875C0.75 39.4865 1.30576 40.8283 2.29501 41.8175C3.28426 42.8068 4.62599 43.3625 6.025 43.3625H15.675C16.0065 43.3625 16.3245 43.2308 16.5589 42.9964C16.7933 42.762 16.925 42.444 16.925 42.1125H58.3375V13.0125C58.669 13.0125 58.987 12.8808 59.2214 12.6464C59.4557 12.412 59.5875 12.094 59.5875 11.7625V5.91253C59.5875 5.21878 59.4506 4.53178 59.1847 3.8909C58.9189 3.25015 58.5293 2.66803 58.0381 2.17815C57.5469 1.68815 56.9639 1.29978 56.3225 1.0354C55.681 0.771152 54.9937 0.635902 54.3 0.637527Z" fill="#0099D6"/>
<path d="M58.325 10.475H2C1.66848 10.475 1.35054 10.6067 1.11611 10.8412C0.8817 11.0755 0.75 11.3935 0.75 11.725V17.1125C0.75 17.444 0.8817 17.7619 1.11611 17.9964C1.35054 18.2308 1.66848 18.3625 2 18.3625H15.675C15.9821 18.3647 16.2792 18.2538 16.5099 18.0509C16.7404 17.848 16.8881 17.5674 16.925 17.2625H28.725V13.0125H58.35C58.6815 13.0125 58.9995 12.8808 59.2339 12.6464C59.4683 12.4119 59.6 12.094 59.6 11.7625C59.6 11.431 59.4683 11.113 59.2339 10.8787C58.9995 10.6442 58.6815 10.5125 58.35 10.5125L58.325 10.475Z" fill="#275996"/>
<path d="M66.9999 10.525H20.6749C17.2231 10.525 14.4249 13.3233 14.4249 16.775V47C14.4249 50.4518 17.2231 53.25 20.6749 53.25H66.9999C70.4518 53.25 73.2499 50.4518 73.2499 47V16.775C73.2499 13.3233 70.4518 10.525 66.9999 10.525Z" fill="#97CCEF"/>
<path d="M71.9999 20.3625H15.6749C14.9846 20.3625 14.4249 20.9222 14.4249 21.6125V27C14.4249 27.6904 14.9846 28.25 15.6749 28.25H71.9999C72.6903 28.25 73.2499 27.6904 73.2499 27V21.6125C73.2499 20.9222 72.6903 20.3625 71.9999 20.3625Z" fill="#275996"/>
<path d="M59.6375 38.475C58.8892 38.4769 58.1522 38.6568 57.4875 39C56.8569 38.6781 56.1615 38.5033 55.4537 38.4885C54.7459 38.4739 54.0439 38.6196 53.4005 38.9151C52.757 39.2105 52.1889 39.6478 51.7387 40.1943C51.2885 40.7407 50.9679 41.3819 50.801 42.0699C50.634 42.758 50.6251 43.4749 50.775 44.1669C50.9247 44.8588 51.2294 45.5079 51.6659 46.0653C52.1024 46.6227 52.6595 47.0739 53.2954 47.3852C53.9314 47.6965 54.6295 47.8596 55.3375 47.8625C56.0874 47.8628 56.8259 47.6782 57.4875 47.325C58.149 47.6782 58.8875 47.8628 59.6375 47.8625C60.8404 47.8004 61.9736 47.2788 62.8031 46.4054C63.6326 45.5319 64.0951 44.3734 64.0951 43.1688C64.0951 41.9642 63.6326 40.8056 62.8031 39.9321C61.9736 39.0588 60.8404 38.5372 59.6375 38.475Z" fill="#275996"/>
</svg>
