<svg width="25" height="24" viewBox="0 0 25 24" fill="none" xmlns="http://www.w3.org/2000/svg">
<path d="M10.378 14.546L1.244 5.411C1.68648 4.67732 2.31055 4.07004 3.05603 3.64773C3.8015 3.22542 4.64322 3.00234 5.5 3H12.794C12.2748 4.77353 12.4741 6.6801 13.3489 8.30792C14.2236 9.93574 15.7035 11.1542 17.469 11.7L14.622 14.548C14.0582 15.109 13.295 15.4238 12.4996 15.4235C11.7042 15.4231 10.9413 15.1076 10.378 14.546ZM16.036 15.96C15.0972 16.896 13.8257 17.4216 12.5 17.4216C11.1743 17.4216 9.90276 16.896 8.964 15.96L0.546 7.542C0.532 7.7 0.5 7.843 0.5 8V19C0.501588 20.3256 1.02888 21.5964 1.96622 22.5338C2.90356 23.4711 4.17441 23.9984 5.5 24H19.5C20.8256 23.9984 22.0964 23.4711 23.0338 22.5338C23.9711 21.5964 24.4984 20.3256 24.5 19V9.894C23.311 11.1104 21.7184 11.8501 20.022 11.974L16.036 15.96ZM15.5 6H18.5V9C18.5 9.26522 18.6054 9.51957 18.7929 9.70711C18.9804 9.89464 19.2348 10 19.5 10C19.7652 10 20.0196 9.89464 20.2071 9.70711C20.3946 9.51957 20.5 9.26522 20.5 9V6H23.5C23.7652 6 24.0196 5.89464 24.2071 5.70711C24.3946 5.51957 24.5 5.26522 24.5 5C24.5 4.73478 24.3946 4.48043 24.2071 4.29289C24.0196 4.10536 23.7652 4 23.5 4H20.5V1C20.5 0.734784 20.3946 0.48043 20.2071 0.292893C20.0196 0.105357 19.7652 0 19.5 0C19.2348 0 18.9804 0.105357 18.7929 0.292893C18.6054 0.48043 18.5 0.734784 18.5 1V4H15.5C15.2348 4 14.9804 4.10536 14.7929 4.29289C14.6054 4.48043 14.5 4.73478 14.5 5C14.5 5.26522 14.6054 5.51957 14.7929 5.70711C14.9804 5.89464 15.2348 6 15.5 6Z" fill="white"/>
</svg>
