
<svg width="16" height="17" viewBox="0 0 16 17" fill="none" xmlns="http://www.w3.org/2000/svg">
<path d="M16 8.83333V12.8333C15.9989 13.8055 15.6123 14.7375 14.9249 15.4249C14.2375 16.1123 13.3055 16.4989 12.3333 16.5H3.66667C2.69453 16.4989 1.76252 16.1123 1.07511 15.4249C0.387707 14.7375 0.00105878 13.8055 0 12.8333L0 6.16667C0.00105878 5.19453 0.387707 4.26252 1.07511 3.57511C1.76252 2.88771 2.69453 2.50106 3.66667 2.5H6.33333C6.59855 2.5 6.8529 2.60536 7.04044 2.79289C7.22798 2.98043 7.33333 3.23478 7.33333 3.5C7.33333 3.76522 7.22798 4.01957 7.04044 4.20711C6.8529 4.39464 6.59855 4.5 6.33333 4.5H3.66667C3.3643 4.501 3.06794 4.58447 2.8095 4.74142C2.55106 4.89836 2.34033 5.12284 2.2 5.39067L6.82067 10.012C7.13833 10.3149 7.56041 10.4839 7.99933 10.4839C8.43826 10.4839 8.86034 10.3149 9.178 10.012L9.994 9.14533C10.0842 9.04982 10.1923 8.973 10.3121 8.91926C10.432 8.86553 10.5613 8.83593 10.6926 8.83215C10.8239 8.82837 10.9546 8.8505 11.0774 8.89726C11.2001 8.94401 11.3125 9.01449 11.408 9.10467C11.5035 9.19484 11.5803 9.30295 11.6341 9.42281C11.6878 9.54267 11.7174 9.67194 11.7212 9.80324C11.725 9.93455 11.7028 10.0653 11.6561 10.1881C11.6093 10.3108 11.5388 10.4232 11.4487 10.5187L10.612 11.404C10.2716 11.7472 9.86697 12.02 9.42116 12.2068C8.97536 12.3936 8.49712 12.4908 8.01375 12.4928C7.53039 12.4947 7.05137 12.4015 6.60404 12.2183C6.15672 12.0352 5.74985 11.7657 5.40667 11.4253L2 8.01867V12.8333C2 13.2754 2.17559 13.6993 2.48816 14.0118C2.80072 14.3244 3.22464 14.5 3.66667 14.5H12.3333C12.7754 14.5 13.1993 14.3244 13.5118 14.0118C13.8244 13.6993 14 13.2754 14 12.8333V8.83333C14 8.56812 14.1054 8.31376 14.2929 8.12623C14.4804 7.93869 14.7348 7.83333 15 7.83333C15.2652 7.83333 15.5196 7.93869 15.7071 8.12623C15.8946 8.31376 16 8.56812 16 8.83333ZM9.66667 5.16667H11.3333V6.83333C11.3333 7.09855 11.4387 7.3529 11.6262 7.54044C11.8138 7.72798 12.0681 7.83333 12.3333 7.83333C12.5985 7.83333 12.8529 7.72798 13.0404 7.54044C13.228 7.3529 13.3333 7.09855 13.3333 6.83333V5.16667H15C15.2652 5.16667 15.5196 5.06131 15.7071 4.87377C15.8946 4.68624 16 4.43188 16 4.16667C16 3.90145 15.8946 3.6471 15.7071 3.45956C15.5196 3.27202 15.2652 3.16667 15 3.16667H13.3333V1.5C13.3333 1.23478 13.228 0.98043 13.0404 0.792893C12.8529 0.605357 12.5985 0.5 12.3333 0.5C12.0681 0.5 11.8138 0.605357 11.6262 0.792893C11.4387 0.98043 11.3333 1.23478 11.3333 1.5V3.16667H9.66667C9.40145 3.16667 9.1471 3.27202 8.95956 3.45956C8.77202 3.6471 8.66667 3.90145 8.66667 4.16667C8.66667 4.43188 8.77202 4.68624 8.95956 4.87377C9.1471 5.06131 9.40145 5.16667 9.66667 5.16667Z" fill="#6A6B70"/>
</svg>
