<svg width="41" height="40" viewBox="0 0 41 40" fill="none" xmlns="http://www.w3.org/2000/svg">
<path d="M40.8096 20.1223C40.8096 9.00905 31.8553 3.05176e-05 20.8096 3.05176e-05C9.76387 3.05176e-05 0.80957 9.00905 0.80957 20.1223C0.80957 30.1658 8.12328 38.4905 17.6846 40V25.9388H12.6064V20.1223H17.6846V15.6891C17.6846 10.6459 20.6704 7.86028 25.2389 7.86028C27.427 7.86028 29.7158 8.25329 29.7158 8.25329V13.2052H27.1939C24.7094 13.2052 23.9346 14.7563 23.9346 16.3476V20.1223H29.4814L28.5947 25.9388H23.9346V40C33.4959 38.4905 40.8096 30.1658 40.8096 20.1223Z" fill="#2F3037"/>
</svg>
