<svg width="48" height="48" viewBox="0 0 48 48" fill="none" xmlns="http://www.w3.org/2000/svg">
<path d="M45 23.625C44.5854 23.625 44.25 23.9608 44.25 24.375H3.75C3.75 23.9608 3.41456 23.625 3 23.625C2.58544 23.625 2.25 23.9608 2.25 24.375V43.875C2.25 45.9427 3.93234 47.625 6 47.625H42C44.0677 47.625 45.75 45.9427 45.75 43.875V24.375C45.75 23.9608 45.4146 23.625 45 23.625Z" fill="#FFEE43"/>
<path d="M45 15.375H3C1.3455 15.375 0 16.7208 0 18.375V22.875C0 24.5292 1.3455 25.875 3 25.875H45C46.6545 25.875 48 24.5292 48 22.875V18.375C48 16.7208 46.6545 15.375 45 15.375Z" fill="#FFD100"/>
<path d="M27 14.625H21V47.625H27V14.625Z" fill="#FF4F19"/>
<path d="M21 38.1855L27 44.1855V42.0645L21 36.0645V38.1855Z" fill="#E7001E"/>
<path d="M21 34.4355L27 40.4355V38.3145L21 32.3145V34.4355Z" fill="#E7001E"/>
<path d="M27 21.6856V19.5645L22.0606 14.625H21V15.6856L27 21.6856Z" fill="#E7001E"/>
<path d="M21 30.6855L27 36.6855V34.5645L21 28.5645V30.6855Z" fill="#E7001E"/>
<path d="M21 39.8145V41.9355L26.6895 47.625H27V45.8145L21 39.8145Z" fill="#E7001E"/>
<path d="M21 26.9355L27 32.9355V30.8145L21 24.8145V26.9355Z" fill="#E7001E"/>
<path d="M21 19.4355L27 25.4355V23.3145L21 17.3145V19.4355Z" fill="#E7001E"/>
<path d="M25.0606 47.625L21 43.5645V45.6855L22.9395 47.625H25.0606Z" fill="#E7001E"/>
<path d="M21 23.1855L27 29.1855V27.0645L21 21.0645V23.1855Z" fill="#E7001E"/>
<path d="M39.7499 27.3721C36.7887 27.3721 35.0434 24.2845 33.3559 21.2985C32.1059 19.0875 30.8224 16.8227 28.9632 15.8573C32.492 14.4819 36.9325 12.5801 38.2581 11.2548C40.7439 8.76928 40.7439 4.72491 38.2581 2.23941C35.7722 -0.246469 31.7278 -0.246469 29.2419 2.23941C27.6955 3.78544 25.3634 9.57459 23.9999 13.2058C22.6364 9.57469 20.3043 3.78544 18.758 2.23941C16.2721 -0.246469 12.2277 -0.246469 9.74184 2.23941C7.25597 4.72491 7.25597 8.76928 9.74184 11.2548C11.0674 12.5801 15.5078 14.4819 19.0367 15.8573C17.1774 16.8227 15.894 19.0875 14.644 21.2985C12.9565 24.2846 11.2112 27.3721 8.25 27.3721C7.62891 27.3721 7.125 27.8756 7.125 28.4971C7.125 29.1186 7.62891 29.6221 8.25 29.6221C12.5237 29.6221 14.6909 25.7882 16.6026 22.4055C17.9934 19.9457 19.3067 17.6221 21 17.6221V17.625H27V17.6221C28.6934 17.6221 30.0066 19.9457 31.3974 22.4055C33.3091 25.7882 35.4763 29.6221 39.75 29.6221C40.3711 29.6221 40.875 29.1186 40.875 28.4971C40.875 27.8756 40.371 27.3721 39.7499 27.3721ZM30.8327 3.83016C31.6369 3.02597 32.6931 2.62425 33.7499 2.62425C34.8061 2.62425 35.8629 3.02634 36.6671 3.83016C38.2755 5.43853 38.2755 8.05547 36.6671 9.66394C35.5216 10.8095 30.1259 13.0462 25.8713 14.6257C27.4504 10.3711 29.6872 4.97569 30.8327 3.83016ZM11.3327 3.83016C12.1369 3.02597 13.1931 2.62425 14.2499 2.62425C15.3061 2.62425 16.3629 3.02634 17.1671 3.83016C18.3127 4.97569 20.5494 10.3711 22.1286 14.6257C17.8739 13.0462 12.4781 10.8094 11.3327 9.66384C9.72431 8.05556 9.72431 5.43862 11.3327 3.83016Z" fill="#E7001E"/>
</svg>
