<svg width="40" height="40" viewBox="0 0 40 40" fill="none" xmlns="http://www.w3.org/2000/svg">
<path fill-rule="evenodd" clip-rule="evenodd" d="M40.0005 20.4548C40.0005 19.0366 39.8707 17.6729 39.6295 16.3638H20.4087V24.1002H31.392C30.9189 26.6002 29.481 28.7184 27.3196 30.1366V35.1548H33.9152C37.7742 31.673 40.0005 26.5457 40.0005 20.4548Z" fill="#2F3037"/>
<path fill-rule="evenodd" clip-rule="evenodd" d="M20.4084 40C25.9186 40 30.5382 38.2091 33.9149 35.1545L27.3193 30.1363C25.4919 31.3363 23.1542 32.0454 20.4084 32.0454C15.093 32.0454 10.5939 28.5272 8.98908 23.7999H2.1709V28.9817C5.52897 35.5181 12.4306 40 20.4084 40Z" fill="#2F3037"/>
<path fill-rule="evenodd" clip-rule="evenodd" d="M8.98887 23.8002C8.58071 22.6002 8.34879 21.3184 8.34879 20.0002C8.34879 18.682 8.58071 17.4002 8.98887 16.2002V11.0183H2.17069C0.788497 13.7184 0 16.7729 0 20.0002C0 23.2275 0.788497 26.2821 2.17069 28.9821L8.98887 23.8002Z" fill="#2F3037"/>
<path fill-rule="evenodd" clip-rule="evenodd" d="M20.4084 7.95459C23.4047 7.95459 26.0948 8.96368 28.2099 10.9455L34.0633 5.20912C30.529 1.98183 25.9093 0 20.4084 0C12.4306 0 5.52897 4.48184 2.1709 11.0182L8.98908 16.2001C10.5939 11.4728 15.093 7.95459 20.4084 7.95459Z" fill="#2F3037"/>
</svg>
