<svg width="32" height="32" viewBox="0 0 32 32" fill="none" xmlns="http://www.w3.org/2000/svg">
<g clip-path="url(#clip0_2165_609)">
<path d="M22.6667 23.9896V31.9896H28C30.2091 31.9896 32 30.1987 32 27.9896V15.8283C32.0003 15.1356 31.7311 14.47 31.2493 13.9723L19.9187 1.72291C17.9194 -0.440216 14.5452 -0.573029 12.3821 1.42622C12.2793 1.52122 12.1803 1.62016 12.0854 1.72291L0.774688 13.9683C0.278313 14.468 -0.000187405 15.1439 9.46143e-08 15.8483V27.9896C9.46143e-08 30.1987 1.79087 31.9896 4 31.9896H9.33331V23.9896C9.35825 20.3538 12.2937 17.3848 15.8379 17.2993C19.5006 17.211 22.6388 20.2305 22.6667 23.9896Z" fill="#038A39"/>
<path d="M16 19.9891C13.7909 19.9891 12 21.7799 12 23.9891V31.9891H20V23.9891C20 21.7799 18.2091 19.9891 16 19.9891Z" fill="#038A39"/>
</g>
<defs>
<clipPath id="clip0_2165_609">
<rect width="32" height="32" fill="white"/>
</clipPath>
</defs>
</svg>
