<svg width="22" height="24" viewBox="0 0 22 24" fill="none" xmlns="http://www.w3.org/2000/svg">
<path d="M11 6.00001C10.2089 6.00001 9.43552 6.23461 8.77772 6.67413C8.11992 7.11366 7.60723 7.73837 7.30448 8.46928C7.00173 9.20018 6.92252 10.0044 7.07686 10.7804C7.2312 11.5563 7.61216 12.269 8.17157 12.8284C8.73098 13.3878 9.44372 13.7688 10.2196 13.9232C10.9956 14.0775 11.7998 13.9983 12.5307 13.6955C13.2616 13.3928 13.8864 12.8801 14.3259 12.2223C14.7654 11.5645 15 10.7911 15 10C15 8.93914 14.5786 7.92173 13.8284 7.17158C13.0783 6.42144 12.0609 6.00001 11 6.00001ZM11 12C10.6044 12 10.2178 11.8827 9.88886 11.6629C9.55996 11.4432 9.30362 11.1308 9.15224 10.7654C9.00087 10.3999 8.96126 9.99779 9.03843 9.60983C9.1156 9.22187 9.30608 8.8655 9.58579 8.5858C9.86549 8.30609 10.2219 8.11561 10.6098 8.03844C10.9978 7.96127 11.3999 8.00088 11.7654 8.15225C12.1308 8.30363 12.4432 8.55997 12.6629 8.88887C12.8827 9.21777 13 9.60445 13 10C13 10.5304 12.7893 11.0392 12.4142 11.4142C12.0391 11.7893 11.5304 12 11 12Z" fill="white"/>
<path d="M10.9998 24.0003C10.1578 24.0046 9.32693 23.8071 8.57689 23.4243C7.82684 23.0416 7.17942 22.4847 6.68882 21.8003C2.87782 16.5433 0.944824 12.5913 0.944824 10.0533C0.944824 7.38654 2.00419 4.82901 3.88987 2.94333C5.77554 1.05765 8.33307 -0.00170898 10.9998 -0.00170898C13.6666 -0.00170898 16.2241 1.05765 18.1098 2.94333C19.9955 4.82901 21.0548 7.38654 21.0548 10.0533C21.0548 12.5913 19.1218 16.5433 15.3108 21.8003C14.8202 22.4847 14.1728 23.0416 13.4228 23.4243C12.6727 23.8071 11.8419 24.0046 10.9998 24.0003ZM10.9998 2.18129C8.91224 2.18367 6.91084 3.01402 5.4347 4.49016C3.95855 5.96631 3.12821 7.96771 3.12582 10.0553C3.12582 12.0653 5.01882 15.7823 8.45482 20.5213C8.74652 20.9231 9.12919 21.2501 9.57154 21.4756C10.0139 21.701 10.5033 21.8186 10.9998 21.8186C11.4963 21.8186 11.9858 21.701 12.4281 21.4756C12.8705 21.2501 13.2531 20.9231 13.5448 20.5213C16.9808 15.7823 18.8738 12.0653 18.8738 10.0553C18.8714 7.96771 18.0411 5.96631 16.565 4.49016C15.0888 3.01402 13.0874 2.18367 10.9998 2.18129Z" fill="white"/>
</svg>
