<svg width="46" height="46" viewBox="0 0 46 46" fill="none" xmlns="http://www.w3.org/2000/svg">
<path fill-rule="evenodd" clip-rule="evenodd" d="M0 22.5C0 21.6716 0.715101 21 1.59722 21H44.4028C45.2849 21 46 21.6716 46 22.5C46 23.3284 45.2849 24 44.4028 24H1.59722C0.715101 24 0 23.3284 0 22.5Z" fill="#2F3037"/>
<path fill-rule="evenodd" clip-rule="evenodd" d="M23.5 46C22.6716 46 22 45.2849 22 44.4028L22 1.59722C22 0.715099 22.6716 -2.93554e-08 23.5 -6.55671e-08C24.3284 -1.01779e-07 25 0.715099 25 1.59722L25 44.4028C25 45.2849 24.3284 46 23.5 46Z" fill="#2F3037"/>
</svg>
