<svg width="62" height="80" viewBox="0 0 62 80" fill="none" xmlns="http://www.w3.org/2000/svg">
<path d="M56.4776 1.81829H5.52204C5.04399 1.81828 4.57071 1.91232 4.12916 2.09505C3.68757 2.27779 3.28631 2.54565 2.94831 2.88331C2.61033 3.22099 2.34222 3.62188 2.1593 4.06308C1.97638 4.50428 1.88223 4.97715 1.88223 5.45471V77.0352C1.88223 77.1901 1.92188 77.3425 1.9974 77.4779C2.07292 77.6132 2.18182 77.7271 2.31376 77.8086C2.44569 77.8899 2.59627 77.9364 2.7512 77.9434C2.90614 77.9502 3.06028 77.9177 3.19901 77.8483L7.94079 75.4789C8.31988 75.2895 8.73788 75.191 9.16167 75.191C9.5853 75.191 10.0033 75.2895 10.3824 75.4789L15.2202 77.8957C15.5993 78.0851 16.0173 78.1836 16.4411 78.1836C16.8647 78.1836 17.2827 78.0851 17.6618 77.8957L22.4997 75.4789C22.8788 75.2895 23.2968 75.191 23.7206 75.191C24.1442 75.191 24.5622 75.2895 24.9413 75.4789L29.7791 77.8957C30.1582 78.0851 30.5762 78.1836 31 78.1836C31.4236 78.1836 31.8416 78.0851 32.2207 77.8957L37.058 75.4791C37.4371 75.2897 37.8551 75.1912 38.2789 75.1912C38.7026 75.1912 39.1206 75.2897 39.4996 75.4791L44.3378 77.8958C44.7169 78.0852 45.1348 78.1837 45.5585 78.1837C45.9823 78.1837 46.4002 78.0852 46.7793 77.8958L51.6173 75.4791C51.9964 75.2897 52.4144 75.1912 52.838 75.1912C53.2618 75.1912 53.6798 75.2897 54.0589 75.4791L58.8007 77.8485C58.9394 77.9178 59.0936 77.9506 59.2485 77.9436C59.4034 77.9366 59.5539 77.89 59.686 77.8087C59.8178 77.7273 59.9267 77.6134 60.0023 77.478C60.0779 77.3427 60.1174 77.1903 60.1174 77.0354V5.45471C60.1174 4.97715 60.0232 4.50428 59.8404 4.06308C59.6575 3.62188 59.3893 3.22099 59.0513 2.88331C58.7133 2.54565 58.312 2.27779 57.8705 2.09505C57.429 1.91232 56.9557 1.81828 56.4776 1.81829Z" fill="#00CF66"/>
<path d="M10.8678 5.4542C10.8678 4.48989 11.2511 3.5651 11.9336 2.88322C12.6162 2.20137 13.5418 1.81829 14.5069 1.81829H5.52204C5.04399 1.81828 4.57071 1.91232 4.12916 2.09505C3.68757 2.27779 3.28631 2.54565 2.94831 2.88331C2.61033 3.22099 2.34222 3.62188 2.1593 4.06308C1.97638 4.50428 1.88223 4.97715 1.88223 5.45471V77.0352C1.88223 77.1901 1.92188 77.3425 1.9974 77.4779C2.07292 77.6132 2.18182 77.7271 2.31376 77.8086C2.44572 77.89 2.59624 77.9364 2.7512 77.9434C2.90617 77.9504 3.06028 77.9177 3.19901 77.8483L7.94079 75.4789C8.31988 75.2895 8.73805 75.191 9.16185 75.191C9.58547 75.191 10.0035 75.2895 10.3826 75.4789L10.8678 75.722V5.4542Z" fill="#00B157"/>
<path d="M56.4776 0H5.52204C4.07456 0.00158528 2.68683 0.576784 1.6633 1.59939C0.639778 2.62201 0.0640867 4.00851 0.0625 5.45471V77.0354C0.0624318 77.5004 0.18133 77.9576 0.407884 78.3636C0.634455 78.7698 0.961174 79.1112 1.35701 79.3557C1.75286 79.6003 2.20467 79.7395 2.66955 79.7603C3.13443 79.7813 3.59694 79.6831 4.01316 79.4752L8.75375 77.1058C8.88017 77.0425 9.01973 77.0096 9.16116 77.0096C9.3026 77.0096 9.44216 77.0425 9.56858 77.1058L14.4069 79.5232C15.0392 79.8369 15.7355 80 16.4413 80C17.1473 80 17.8435 79.8369 18.4758 79.5232L23.3125 77.1058C23.4389 77.0425 23.5784 77.0096 23.7199 77.0096C23.8613 77.0096 24.0009 77.0425 24.1273 77.1058L28.9656 79.5232C29.5979 79.8369 30.2942 80 31 80C31.706 80 32.4022 79.8369 33.0345 79.5232L37.8729 77.1058C37.999 77.0427 38.138 77.01 38.2789 77.01C38.4199 77.01 38.5589 77.0427 38.685 77.1058L43.5244 79.5232C44.1566 79.8369 44.8529 80 45.5589 80C46.2647 80 46.961 79.8369 47.5932 79.5232L52.4299 77.1058C52.5563 77.0425 52.6959 77.0096 52.8373 77.0096C52.9787 77.0096 53.1183 77.0425 53.2447 77.1058L57.9877 79.4752C58.4038 79.6829 58.8663 79.781 59.3311 79.76C59.7958 79.7389 60.2474 79.5996 60.6431 79.3551C61.0389 79.1109 61.3654 78.7694 61.592 78.3634C61.8186 77.9574 61.9375 77.5004 61.9375 77.0355V5.45471C61.936 4.00846 61.3602 2.62189 60.3365 1.59927C59.313 0.576648 57.9251 0.001483 56.4776 0ZM58.2975 75.5643L54.872 73.8525C54.2397 73.5389 53.5435 73.3758 52.8375 73.3758C52.1317 73.3758 51.4354 73.5389 50.8031 73.8525L45.9665 76.27C45.8399 76.3329 45.7005 76.3656 45.5591 76.3656C45.4176 76.3656 45.2782 76.3329 45.1516 76.27L40.3123 73.8525C39.6802 73.5387 38.9839 73.3754 38.2781 73.3756C37.5723 73.3758 36.8762 73.5392 36.2442 73.8534L31.4076 76.27C31.281 76.3329 31.1416 76.3656 31.0002 76.3656C30.8587 76.3656 30.7193 76.3329 30.5928 76.27L25.7544 73.8525C25.1221 73.5389 24.4259 73.3758 23.72 73.3758C23.0141 73.3758 22.3178 73.5389 21.6855 73.8525L16.8489 76.27C16.7223 76.3329 16.5829 76.3656 16.4415 76.3656C16.3 76.3656 16.1606 76.3329 16.034 76.27L11.1957 73.8525C10.5634 73.5389 9.86715 73.3758 9.16116 73.3758C8.45535 73.3758 7.75908 73.5389 7.1268 73.8525L3.70214 75.5643V5.45471C3.70268 4.97263 3.89458 4.51047 4.23577 4.16958C4.57703 3.8287 5.03955 3.63696 5.52204 3.63642H56.4776C56.9601 3.63696 57.4226 3.8287 57.7639 4.16958C58.1051 4.51047 58.297 4.97263 58.2975 5.45471V75.5643Z" fill="#006227"/>
<path d="M29.2048 32.154C29.6029 32.3049 29.9646 32.4412 30.2659 32.574C30.6658 32.7503 31.1278 32.9274 31.6227 33.1164C34.4549 34.1973 36.4594 35.1323 36.4594 37.3268C36.4594 38.4555 35.4632 39.7176 33.9819 40.4665C31.2788 41.8332 27.848 41.3113 24.7983 39.0709C24.6059 38.9289 24.3871 38.8263 24.1549 38.769C23.9227 38.7116 23.6815 38.7005 23.445 38.7363C23.2086 38.7721 22.9813 38.8543 22.7766 38.9778C22.5718 39.1014 22.3935 39.2642 22.2519 39.4568C22.1102 39.6493 22.0078 39.868 21.9508 40.1C21.8937 40.3321 21.8831 40.5732 21.9194 40.8094C21.9556 41.0457 22.0382 41.2726 22.1624 41.4768C22.2864 41.6812 22.4497 41.8589 22.6426 42.0003C24.7195 43.5266 26.9628 44.4407 29.1801 44.7401V47.2739C29.1847 47.7531 29.3785 48.2111 29.7192 48.5483C30.0601 48.8855 30.5202 49.0747 30.9998 49.0747C31.4796 49.0747 31.9397 48.8855 32.2806 48.5483C32.6213 48.2111 32.8151 47.7531 32.8197 47.2739V44.6489C33.7941 44.4697 34.7386 44.1544 35.6251 43.7124C38.385 42.3168 40.0992 39.8704 40.0992 37.3273C40.0992 32.4589 35.6065 30.7441 32.9219 29.7197C32.4893 29.5541 32.0841 29.4009 31.7348 29.247C31.3856 29.093 30.9618 28.9309 30.497 28.7547C27.7843 27.7258 25.5405 26.6954 25.5405 24.4932C25.5405 23.3644 26.5367 22.1023 28.0179 21.3535C30.7202 19.9876 34.1519 20.5092 37.2015 22.7492C37.5905 23.0347 38.0769 23.1544 38.5541 23.0814C39.0313 23.0087 39.4599 22.7494 39.7457 22.3609C40.0316 21.9723 40.1512 21.4861 40.0784 21.0093C40.0053 20.5327 39.746 20.1044 39.357 19.8188C37.2802 18.2931 35.0366 17.3692 32.8196 17.07V14.546C32.8219 14.3058 32.7766 14.0674 32.6861 13.8447C32.5957 13.6221 32.462 13.4196 32.2929 13.2489C32.1236 13.0782 31.9222 12.9427 31.7002 12.8502C31.4782 12.7577 31.2402 12.7101 30.9997 12.7101C30.7593 12.7101 30.5211 12.7577 30.2991 12.8502C30.0773 12.9427 29.8758 13.0782 29.7066 13.2489C29.5374 13.4196 29.4038 13.6221 29.3133 13.8447C29.2229 14.0674 29.1775 14.3058 29.1799 14.546V17.1622C28.2051 17.3448 27.2607 17.6632 26.3746 18.1084C23.6146 19.5037 21.9005 21.9499 21.9005 24.4932C21.9007 29.383 26.652 31.1858 29.2048 32.154Z" fill="#006227"/>
<path d="M45.5585 52.729H16.4411C16.2007 52.7266 15.962 52.7719 15.7392 52.8623C15.5164 52.9526 15.3137 53.0863 15.1429 53.2552C14.972 53.4243 14.8364 53.6256 14.7439 53.8474C14.6512 54.069 14.6036 54.3069 14.6036 54.5473C14.6036 54.7875 14.6512 55.0254 14.7439 55.247C14.8364 55.4688 14.972 55.6701 15.1429 55.8392C15.3137 56.0081 15.5164 56.1418 15.7392 56.2321C15.962 56.3225 16.2007 56.3678 16.4411 56.3654H45.5585C45.7989 56.3678 46.0376 56.3225 46.2604 56.2321C46.4833 56.1418 46.6859 56.0081 46.8567 55.8392C47.0277 55.6701 47.1633 55.4688 47.2558 55.247C47.3484 55.0254 47.396 54.7875 47.396 54.5473C47.396 54.3069 47.3484 54.069 47.2558 53.8474C47.1633 53.6256 47.0277 53.4243 46.8567 53.2552C46.6859 53.0863 46.4833 52.9526 46.2604 52.8623C46.0376 52.7719 45.7989 52.7266 45.5585 52.729Z" fill="#006227"/>
<path d="M45.5585 60.0018H16.4411C16.2007 59.9994 15.962 60.0448 15.7392 60.1351C15.5164 60.2255 15.3137 60.3591 15.1429 60.528C14.972 60.6971 14.8364 60.8984 14.7439 61.1202C14.6512 61.3418 14.6036 61.5798 14.6036 61.8201C14.6036 62.0603 14.6512 62.2983 14.7439 62.5199C14.8364 62.7416 14.972 62.9429 15.1429 63.112C15.3137 63.281 15.5164 63.4146 15.7392 63.5049C15.962 63.5953 16.2007 63.6406 16.4411 63.6382H45.5585C45.7989 63.6406 46.0376 63.5953 46.2604 63.5049C46.4833 63.4146 46.6859 63.281 46.8567 63.112C47.0277 62.9429 47.1633 62.7416 47.2558 62.5199C47.3484 62.2983 47.396 62.0603 47.396 61.8201C47.396 61.5798 47.3484 61.3418 47.2558 61.1202C47.1633 60.8984 47.0277 60.6971 46.8567 60.528C46.6859 60.3591 46.4833 60.2255 46.2604 60.1351C46.0376 60.0448 45.7989 59.9994 45.5585 60.0018Z" fill="#006227"/>
</svg>
